<svg width="54" height="54" viewBox="0 0 54 54" fill="none" xmlns="http://www.w3.org/2000/svg">
<rect width="54" height="54" rx="27" fill="white"/>
<path d="M37.6562 16C38.9502 16 40 17.0493 40 18.3438C40 19.0811 39.6533 19.7744 39.0625 20.2187L28.4375 28.1875C27.8809 28.6025 27.1191 28.6025 26.5625 28.1875L15.9375 20.2187C15.3473 19.7744 15 19.0811 15 18.3438C15 17.0493 16.0493 16 17.3438 16H37.6562ZM25.625 29.4375C26.7383 30.2725 28.2617 30.2725 29.375 29.4375L40 21.4688V31.625C40 33.3486 38.5986 34.75 36.875 34.75H18.125C16.3989 34.75 15 33.3486 15 31.625V21.4688L25.625 29.4375Z" fill="black"/>
</svg>
