<svg width="54" height="54" viewBox="0 0 54 54" fill="none" xmlns="http://www.w3.org/2000/svg">
<rect width="54" height="54" rx="27" fill="white"/>
<path d="M33.8337 15H21.167C19.8558 15 18.792 16.0498 18.792 17.3438V37.6562C18.792 38.9502 19.8558 40 21.167 40H33.8337C35.1449 40 36.2087 38.9502 36.2087 37.6562V17.3438C36.2087 16.0498 35.1449 15 33.8337 15ZM29.8753 36.8311C29.8753 37.3047 29.5191 37.6562 29.0837 37.6562H25.8725C25.4816 37.6562 25.1253 37.3047 25.1253 36.875C25.1253 36.4453 25.4816 36.0938 25.917 36.0938H29.0837C29.5191 36.0938 29.8753 36.4453 29.8753 36.8311ZM33.042 33.75H21.9587V18.125H33.042V33.75Z" fill="black"/>
</svg>
