<svg width="54" height="54" viewBox="0 0 54 54" fill="none" xmlns="http://www.w3.org/2000/svg">
<rect width="54" height="54" rx="27" fill="white"/>
<path d="M37.7518 29.8098C37.9071 29.0715 38.0036 28.2857 38.0036 27.5C38.0036 21.5146 33.0804 16.6736 27.0054 16.6736C26.2071 16.6736 25.4143 16.7633 24.6589 16.9215C23.6411 16.1463 22.3768 15.6875 21 15.6875C17.6893 15.6875 15 18.3348 15 21.5938C15 22.949 15.4661 24.1936 16.2482 25.1902C16.0929 25.9285 15.9964 26.7143 15.9964 27.5C15.9964 33.4854 20.9196 38.3264 26.9946 38.3264C27.7929 38.3264 28.5857 38.2367 29.3411 38.0785C30.3589 38.8484 31.6232 39.3072 32.9946 39.3072C36.3054 39.3072 38.9946 36.66 38.9946 33.401C39 32.051 38.5339 30.8064 37.7518 29.8098V29.8098ZM27.3268 34.635C23.8125 34.635 20.8714 33.0951 20.8714 31.2072C20.8714 30.3635 21.3536 29.5936 22.4518 29.5936C24.1232 29.5936 24.2786 31.9613 27.1714 31.9613C28.5482 31.9613 29.4375 31.3602 29.4375 30.5744C29.4375 29.5883 28.5804 29.4354 27.1875 29.0979C23.8393 28.2857 20.8768 27.9377 20.8768 24.4994C20.8768 21.3775 24.0161 20.2227 26.7214 20.2227C29.6732 20.2227 32.6571 21.3775 32.6571 23.1441C32.6571 24.0354 32.0464 24.8211 31.0339 24.8211C29.5179 24.8211 29.4696 23.0545 27.0161 23.0545C25.6393 23.0545 24.7661 23.4236 24.7661 24.241C24.7661 25.2852 25.8804 25.3906 28.4679 25.9812C30.6857 26.4717 33.3268 27.3945 33.3268 30.0734C33.3268 33.19 30.2679 34.635 27.3268 34.635V34.635Z" fill="black"/>
</svg>
