<svg width="84" height="84" viewBox="0 0 84 84" fill="none" xmlns="http://www.w3.org/2000/svg">
<g clip-path="url(#clip0_433_420)">
<path fill-rule="evenodd" clip-rule="evenodd" d="M83.864 45.4048C83.9541 44.2817 84 43.1462 84 42C84 18.804 65.196 0 42 0C18.804 0 0 18.804 0 42C0 65.196 18.804 84 42 84C42.0585 84 42.117 83.9999 42.1754 83.9996C47.2569 92.3915 56.4735 98 67 98C83.0163 98 96 85.0163 96 69C96 59.2737 91.2118 50.6657 83.864 45.4048Z" fill="#FDE14C"/>
<path d="M66.34 63.12C66.34 63.82 66.06 64.17 65.5 64.17L56.41 64.03C55.71 64.03 55.36 63.68 55.36 62.98C55.36 62.6533 55.36 62.21 55.36 61.65C55.4067 61.0433 55.43 60.4133 55.43 59.76C55.4767 59.06 55.5 58.36 55.5 57.66C55.5 56.9133 55.5 56.2367 55.5 55.63L55.8298 41.36C55.8298 38.7 55.6962 37.1267 54.9962 35.12C54.5608 33.8719 54.5 32.5 52.84 30.5C50.6895 27.9092 49 28.08 47.84 27.5C46.9938 27.0769 45.16 27 43.34 27C42.34 27 39.5901 27 38.5901 27.5C36.6129 28.4886 35.7972 29.08 35 30C34.2028 30.92 33.5 31.5 33.0601 33.5C32.6203 35.5 32.5701 36.88 32.5701 38V55.84C32.5701 57.24 32.5701 58.6633 32.5701 60.11C32.6168 61.5567 32.6635 62.6767 32.7101 63.47C32.7101 63.9367 32.4768 64.17 32.0101 64.17H22.61C22.2367 64.17 22.0033 64.1 21.91 63.96C21.8633 63.82 21.8633 63.6567 21.91 63.47C21.9567 63.1433 22.0033 62.6533 22.05 62C22.0967 61.3 22.1433 60.5767 22.19 59.83C22.2367 59.0833 22.2833 58.36 22.33 57.66C22.3767 56.9133 22.4 56.3067 22.4 55.84V30.92C22.4 29.8 22.33 28.8667 22.19 28.12C22.05 27.3267 21.8867 26.6267 21.7 26.02C21.5133 25.3667 21.35 24.76 21.21 24.2C21.07 23.5933 21 22.8933 21 22.1C21 21.4 21.35 21.05 22.05 21.05C22.47 21.05 22.96 21.05 23.52 21.05C24.1267 21.0033 24.7333 20.98 25.34 20.98C25.9933 20.98 28.4635 21.0033 29.0701 21.05C29.6768 21.05 30.1901 21.05 30.6101 21.05C31.5435 21.05 32.0101 21.5167 32.0101 22.45V24.06C31.9635 24.5733 31.9868 24.8767 32.0801 24.97C32.2201 25.0167 32.5468 24.83 33.0601 24.41C34.6001 23.0567 36.4435 21.9833 38.5901 21.19C40.7835 20.3967 43.0235 20 45.3101 20C47.8768 20 50.96 19.9733 53.34 21C55.72 21.98 58.02 23.0867 59.84 25C61.7066 26.9133 63.5866 30.1267 64.66 32.88C65.78 35.5867 66.34 38.6433 66.34 42.05V63.12Z" fill="black"/>
</g>
<defs>
<clipPath id="clip0_433_420">
<rect width="84" height="84" fill="white"/>
</clipPath>
</defs>
</svg>
