<svg width="84" height="84" viewBox="0 0 84 84" fill="none" xmlns="http://www.w3.org/2000/svg">
<g filter="url(#filter0_ii_941_18369)">
<path d="M42.1241 83.035C19.5301 83.035 1.21398 64.719 1.21398 42.1249C1.21398 19.5309 19.5301 1.21484 42.1241 1.21484C64.7181 1.21484 83.0342 19.5309 83.0342 42.1249C83.0342 64.719 64.7181 83.035 42.1241 83.035Z" fill="url(#paint0_linear_941_18369)" fill-opacity="0.15"/>
<path d="M42.1241 83.035C19.5301 83.035 1.21398 64.719 1.21398 42.1249C1.21398 19.5309 19.5301 1.21484 42.1241 1.21484C64.7181 1.21484 83.0342 19.5309 83.0342 42.1249C83.0342 64.719 64.7181 83.035 42.1241 83.035Z" fill="#FE6F93"/>
</g>
<path d="M34.8519 29.8613L44.2676 29.8613C49.6296 29.8613 53.1481 33.5536 53.1481 38.438V62.3529H63V38.438C63 28.8073 54.6132 21 44.2676 21H25V62.3529L34.8519 62.3529V29.8613Z" fill="#191919"/>
<defs>
<filter id="filter0_ii_941_18369" x="-8.78613" y="1.21484" width="103.895" height="101.82" filterUnits="userSpaceOnUse" color-interpolation-filters="sRGB">
<feFlood flood-opacity="0" result="BackgroundImageFix"/>
<feBlend mode="normal" in="SourceGraphic" in2="BackgroundImageFix" result="shape"/>
<feColorMatrix in="SourceAlpha" type="matrix" values="0 0 0 0 0 0 0 0 0 0 0 0 0 0 0 0 0 0 127 0" result="hardAlpha"/>
<feOffset dx="12.075" dy="12.075"/>
<feGaussianBlur stdDeviation="25.3575"/>
<feComposite in2="hardAlpha" operator="arithmetic" k2="-1" k3="1"/>
<feColorMatrix type="matrix" values="0 0 0 0 1 0 0 0 0 1 0 0 0 0 1 0 0 0 0.5 0"/>
<feBlend mode="normal" in2="shape" result="effect1_innerShadow_941_18369"/>
<feColorMatrix in="SourceAlpha" type="matrix" values="0 0 0 0 0 0 0 0 0 0 0 0 0 0 0 0 0 0 127 0" result="hardAlpha"/>
<feOffset dx="-10" dy="20"/>
<feGaussianBlur stdDeviation="33.5"/>
<feComposite in2="hardAlpha" operator="arithmetic" k2="-1" k3="1"/>
<feColorMatrix type="matrix" values="0 0 0 0 0.992157 0 0 0 0 0.372549 0 0 0 0 0.560784 0 0 0 0.25 0"/>
<feBlend mode="normal" in2="effect1_innerShadow_941_18369" result="effect2_innerShadow_941_18369"/>
</filter>
<linearGradient id="paint0_linear_941_18369" x1="21.669" y1="48.012" x2="-18.5426" y2="121.95" gradientUnits="userSpaceOnUse">
<stop stop-color="white"/>
<stop offset="1" stop-color="white" stop-opacity="0"/>
</linearGradient>
</defs>
</svg>
