<svg width="48" height="48" viewBox="0 0 48 48" fill="none" xmlns="http://www.w3.org/2000/svg">
<path d="M36.976 25.8459C32.9797 25.8459 29.7285 29.0971 29.7285 33.0934C29.7285 37.0897 32.9797 40.3408 36.976 40.3408C40.9721 40.3408 44.2234 37.0897 44.2234 33.0934C44.2234 29.0971 40.9722 25.8459 36.976 25.8459ZM36.976 38.9346C33.7551 38.9346 31.1348 36.3143 31.1348 33.0934C31.1348 29.8725 33.7551 27.2522 36.976 27.2522C40.1967 27.2522 42.8171 29.8725 42.8171 33.0934C42.8171 36.3143 40.1968 38.9346 36.976 38.9346Z" fill="black"/>
<path d="M38.3531 29.7047L35.9124 30.9909C34.9299 31.5075 34.4268 32.6613 34.7665 33.7575C34.9518 34.3553 35.3586 34.8453 35.9124 35.1371C37.0646 35.7442 38.4772 35.2967 39.078 34.1565L40.3665 31.7113C41.0414 30.4082 39.6321 29.0306 38.3531 29.7047ZM39.1201 31.0602L37.8338 33.501C37.5923 33.9593 37.0262 34.1345 36.568 33.8931C36.3466 33.7764 36.1838 33.5805 36.1098 33.3413C35.9733 32.9007 36.1776 32.4401 36.5672 32.2354C36.5674 32.2352 36.5677 32.2351 36.568 32.235L39.0087 30.9488C39.0794 30.9115 39.1576 30.9877 39.1201 31.0602Z" fill="black"/>
<path d="M12.688 12.9083C12.2997 12.9083 11.9849 13.223 11.9849 13.6115V14.8755C11.9849 15.2638 12.2997 15.5786 12.688 15.5786C13.0763 15.5786 13.3911 15.2638 13.3911 14.8755V13.6115C13.3911 13.2231 13.0763 12.9083 12.688 12.9083Z" fill="black"/>
<path d="M25.8442 12.9083C25.4559 12.9083 25.1411 13.223 25.1411 13.6115V14.8755C25.1411 15.2638 25.4559 15.5786 25.8442 15.5786C26.2326 15.5786 26.5474 15.2638 26.5474 14.8755V13.6115C26.5474 13.2231 26.2326 12.9083 25.8442 12.9083Z" fill="black"/>
<path d="M21.4624 14.3078C21.1696 14.0527 20.7255 14.0832 20.4703 14.376C20.1663 14.7248 19.7274 14.9249 19.2661 14.9249C18.8047 14.9249 18.3658 14.7248 18.0619 14.376C17.8067 14.0832 17.3626 14.0527 17.0698 14.3078C16.777 14.5629 16.7466 15.0071 17.0017 15.2999C17.5728 15.9553 18.3982 16.3311 19.2661 16.3311C20.1339 16.3311 20.9593 15.9553 21.5304 15.2999C21.7856 15.0071 21.7552 14.5629 21.4624 14.3078Z" fill="black"/>
<path d="M44.8353 26.367L44.4844 27.1875C45.7286 28.8563 46.5938 31.0056 46.5938 33.0934C46.5938 38.3966 42.2793 42.7112 36.9759 42.7112C31.6298 42.7112 27.3581 38.3562 27.3581 33.0934C27.3581 27.7966 31.6909 23.4161 37.0889 23.4779C40.1794 23.4779 43.3125 25.3125 44.4844 27.1875L44.8353 26.367L45.6562 26.0568C43.9131 23.7188 41.1947 22.7933 39.7553 22.421V20.2499C40.8142 19.9222 41.5854 18.934 41.5854 17.769C41.5854 16.3373 40.4207 15.1726 38.989 15.1726H38.5323V13.963C38.5323 10.411 35.7146 7.5061 32.1972 7.36275V5.74182C32.1972 3.74016 30.5688 2.11182 28.5671 2.11182C26.5655 2.11182 24.9371 3.74025 24.9371 5.74182V7.35582H13.5952V5.74182C13.5952 3.74016 11.9667 2.11182 9.96506 2.11182C7.96341 2.11182 6.33497 3.74025 6.33497 5.74182V7.36275C2.81756 7.50657 0 10.4113 0 13.9629V34.2341L0.703125 32.1248L1.40625 34.2341V19.4747H33.0077C33.321 19.8334 33.7307 20.1057 34.1964 20.2499V22.423C32.5019 22.8632 30.8677 23.7342 29.4966 25.0027C28.9741 24.7715 28.4071 24.6505 27.8301 24.6505H10.7029C8.43066 24.6505 6.582 26.4992 6.582 28.7714V35.1855C6.582 37.4577 8.43056 39.3064 10.7029 39.3064H27.8301C27.8424 39.3064 27.8555 39.3053 27.8679 39.3053C29.4595 41.6338 31.8361 43.2162 34.4551 43.8278C33.6911 44.2552 32.827 44.482 31.9253 44.482H6.60806C3.73978 44.482 1.40625 42.1489 1.40625 39.2811V34.2341L0.703125 32.1248L0 34.2341V39.2811C0 42.9243 2.96437 45.8883 6.60806 45.8883H31.9253C33.6205 45.8883 35.2107 45.2572 36.439 44.1042C36.617 44.1128 36.7959 44.1174 36.9759 44.1174C43.0546 44.1174 48 39.1721 48 33.0934C48 30.7003 47.0829 27.9703 45.6562 26.0568L44.8353 26.367ZM15.9758 33.4835V30.4733H22.557V33.4835H15.9758ZM22.557 34.8897V37.9H15.9758V34.8897H22.557ZM7.98825 30.4733H14.5696V33.4835H7.98825V30.4733ZM15.9758 29.067V26.0568H22.557V29.067H15.9758ZM23.9633 30.4733H26.2666C26.0508 31.3608 25.9519 32.2431 25.9519 33.0934C25.9519 33.3294 25.9586 33.4568 25.9595 33.4835H23.9633V30.4733ZM36.9759 22.0693C36.5215 22.0693 36.029 22.1014 35.6027 22.1543V20.3654H38.3493V22.153C37.9549 22.1045 37.4225 22.0693 36.9759 22.0693ZM40.1794 17.769C40.1794 18.3404 39.7781 18.9063 38.9771 18.9592C38.0158 18.9586 35.0809 18.9613 34.9229 18.9563C34.2753 18.935 33.7725 18.3993 33.7725 17.769C33.7725 17.1153 34.3038 16.5788 34.9627 16.5788H38.9891C39.6454 16.5788 40.1794 17.1128 40.1794 17.769ZM26.3436 5.74182C26.3436 4.51557 27.3412 3.51807 28.5673 3.51807C29.7936 3.51807 30.7911 4.51566 30.7911 5.74182V8.64132C30.7911 9.86963 29.7904 10.8652 28.5673 10.8652C27.3411 10.8652 26.3436 9.86757 26.3436 8.64132C26.3436 7.63238 26.3436 6.33057 26.3436 5.74182ZM9.96506 3.51797C11.1913 3.51797 12.1889 4.51557 12.1889 5.74172V8.64122C12.1889 9.86578 11.1929 10.8651 9.96506 10.8651C8.74397 10.8651 7.74131 9.87253 7.74131 8.64122C7.74131 8.04075 7.74131 6.62194 7.74131 5.74172C7.74131 4.51557 8.73891 3.51797 9.96506 3.51797ZM1.40625 18.0684V13.9629C1.40625 11.186 3.59438 8.91028 6.33731 8.769C6.4065 10.7344 8.02959 12.2713 9.96516 12.2713C11.9161 12.2713 13.5303 10.7154 13.5933 8.76207H24.9393C25.002 10.7057 26.6065 12.2713 28.5674 12.2713C30.5195 12.2713 32.1252 10.7208 32.1952 8.769C34.9381 8.90982 37.1263 11.1857 37.1263 13.963V15.1726H34.9628C33.5284 15.1726 32.3664 16.3398 32.3664 17.7691C32.3664 17.861 32.3725 17.9728 32.3839 18.0685H1.40625V18.0684ZM28.4337 26.1245C27.7026 27.0176 27.125 28.0099 26.7104 29.067H23.9633V26.0568H27.83C28.0344 26.0567 28.2368 26.0797 28.4337 26.1245ZM10.7028 26.0567H14.5695V29.0669H7.98825V28.7712C7.98825 27.2745 9.20597 26.0567 10.7028 26.0567ZM7.98825 35.1855V34.8898H14.5696V37.9001H10.7029C9.20597 37.9 7.98825 36.6822 7.98825 35.1855ZM23.9633 37.9V34.8897H26.098C26.2648 35.9052 26.5823 36.9301 27.0527 37.9H23.9633Z" fill="black"/>
</svg>
