<svg width="575" height="549" viewBox="0 0 575 549" fill="none" xmlns="http://www.w3.org/2000/svg">
<path d="M287.732 201.9C278.56 197.32 282.192 171.579 287.105 161.249C295.807 142.937 317.202 146.043 322.763 170.873C323.977 176.283 331.433 178.658 328.533 187.321C326.504 193.372 318.358 190.224 318.358 190.224C318.358 190.224 293.222 204.642 287.732 201.9Z" fill="black" stroke="black" stroke-width="1.19726" stroke-miterlimit="10" stroke-linecap="round" stroke-linejoin="round"/>
<path d="M382.717 326.772L170.182 324.685" stroke="black" stroke-width="1.19726" stroke-miterlimit="10" stroke-linecap="round" stroke-linejoin="round"/>
<path d="M232.041 441.474L183.726 440.898L187.635 455.473L232.041 455.58V441.474Z" fill="white" stroke="black" stroke-width="1.19726" stroke-miterlimit="10" stroke-linecap="round" stroke-linejoin="round"/>
<path d="M346.819 262.599C346.819 262.599 361.605 283.296 358.26 300.02C354.918 316.74 335.705 327.824 306.016 326.776C308.525 351.859 303.99 442.17 303.99 442.17L232.04 441.474L190.243 440.893V319.453L248.529 274.469C248.533 274.473 276.326 263.316 346.819 262.599Z" fill="black" stroke="black" stroke-width="1.19726" stroke-miterlimit="10" stroke-linecap="round" stroke-linejoin="round"/>
<path d="M272.165 284.55L234.969 318.414L232.041 441.473" stroke="#949494" stroke-width="1.19726" stroke-miterlimit="10" stroke-linecap="round" stroke-linejoin="round"/>
<path d="M309.78 442.22L222.289 441.474L225.631 455.556L305.316 455.853L309.78 442.22Z" fill="white" stroke="black" stroke-width="1.19726" stroke-miterlimit="10" stroke-linecap="round" stroke-linejoin="round"/>
<path d="M194.426 455.58V465.256L168.977 483.292L232.041 483.843V455.58H194.426Z" fill="white" stroke="black" stroke-width="1.19726" stroke-miterlimit="10" stroke-linecap="round" stroke-linejoin="round"/>
<path d="M303.51 455.853L232.041 455.58V466.196L206.749 483.541L302.869 484.688L303.51 455.853Z" fill="white" stroke="black" stroke-width="1.19726" stroke-miterlimit="10" stroke-linecap="round" stroke-linejoin="round"/>
<path d="M290.509 247.996L288.675 227.279L290.137 205.539L288.675 227.279L272.791 215.375C272.791 215.375 293.479 186.519 302.675 185.058C307.901 188.818 312.08 182.759 312.08 182.759C312.08 182.759 340.212 183.654 347.731 210.409C331.429 215.636 319.599 218.812 319.599 218.812L316.258 205.961L323.57 241.286L290.509 247.996Z" fill="white" stroke="black" stroke-width="1.19726" stroke-miterlimit="10" stroke-linecap="round" stroke-linejoin="round"/>
<path d="M347.735 210.405C347.735 210.405 357.71 255.703 355.755 259.05C353.805 262.392 299.454 273.405 285.242 273.915C271.031 274.424 275.242 253.33 279.553 250.894C283.867 248.459 323.569 241.282 323.569 241.282L319.598 218.808L347.735 210.405Z" fill="white" stroke="black" stroke-width="1.19726" stroke-miterlimit="10" stroke-linecap="round" stroke-linejoin="round"/>
<path d="M288.045 226.963L275.449 217.391L265.686 233.967L275.449 251.105L290.493 247.85L288.045 226.963Z" fill="white" stroke="black" stroke-width="1.19726" stroke-miterlimit="10" stroke-linecap="round" stroke-linejoin="round"/>
<path d="M312.078 182.755L309.884 176.484C309.884 176.484 312.182 173.348 312.078 171.571C311.975 169.795 315.527 171.049 314.587 167.392C313.647 163.736 309.051 167.811 306.749 168.751C304.447 169.691 300.19 167.45 297.971 167.289C296.459 167.177 294.927 168.64 294.492 169.609C293.615 171.575 294.836 174.396 297.134 175.755C299.432 177.114 302.881 177.325 302.881 177.325L303.224 185.422C303.224 185.422 303.709 187.128 308.206 185.886C312.707 184.634 312.078 182.755 312.078 182.755Z" fill="white" stroke="black" stroke-width="1.19726" stroke-miterlimit="10" stroke-linecap="round" stroke-linejoin="round"/>
<path d="M487.726 274.868H71.4395" stroke="black" stroke-width="1.19726" stroke-miterlimit="10" stroke-linecap="round" stroke-linejoin="round"/>
<path d="M441.018 498.804L382.717 274.868" stroke="black" stroke-width="1.19726" stroke-miterlimit="10"/>
<path d="M434.749 274.868L358.265 508.209" stroke="black" stroke-width="1.19726" stroke-miterlimit="10"/>
<path d="M174.57 274.868L96.8311 508.209" stroke="black" stroke-width="1.19726" stroke-miterlimit="10"/>
<path d="M172.039 465.589L121.283 274.868" stroke="black" stroke-width="1.19726" stroke-miterlimit="10"/>
<path d="M290.493 274.893L252.103 197.027H148.729L182.716 274.893H290.493Z" fill="#DADADA" stroke="black" stroke-width="1.19726" stroke-miterlimit="10" stroke-linecap="round" stroke-linejoin="round"/>
<path d="M210.099 232.212C210.099 232.212 214.069 231.13 216.89 233.118C218.111 233.98 221.966 236.986 219.95 239.493C217.933 242.002 214.173 239.807 212.708 237.612C211.247 235.417 210.099 232.212 210.099 232.212Z" fill="white" stroke="black" stroke-width="1.19726" stroke-miterlimit="10" stroke-linecap="round" stroke-linejoin="round"/>
<path d="M137.659 120.33H19.0306C13.3204 120.33 8.69141 124.96 8.69141 130.672V157.886C8.69141 163.598 13.3204 168.228 19.0306 168.228H137.659C143.369 168.228 147.999 163.598 147.999 157.886V130.672C147.999 124.96 143.369 120.33 137.659 120.33Z" stroke="black" stroke-width="1.04893"/>
<path d="M173.559 68.8569C173.559 68.8569 154.746 70.314 135.929 87.8218" stroke="black" stroke-width="1.25337" stroke-miterlimit="10" stroke-linecap="round" stroke-linejoin="round"/>
<path d="M503.805 162.231C503.805 162.231 496.88 144.674 474.615 131.833" stroke="black" stroke-width="1.25337" stroke-miterlimit="10" stroke-linecap="round" stroke-linejoin="round"/>
<path d="M166.303 76.9902C166.303 76.9902 152.956 80.0562 139.613 91.1037" stroke="black" stroke-width="1.25337" stroke-miterlimit="10" stroke-linecap="round" stroke-linejoin="round"/>
<path d="M493.899 157.685C493.899 157.685 487.045 145.827 472.563 136.32" stroke="black" stroke-width="1.25337" stroke-miterlimit="10" stroke-linecap="round" stroke-linejoin="round"/>
<path d="M97.3779 195.662C97.3779 195.662 99.9761 214.356 118.592 232.078" stroke="black" stroke-width="1.25337" stroke-miterlimit="10" stroke-linecap="round" stroke-linejoin="round"/>
<path d="M105.937 202.413C105.937 202.413 109.808 215.551 121.644 228.2" stroke="black" stroke-width="1.25337" stroke-miterlimit="10" stroke-linecap="round" stroke-linejoin="round"/>
<path d="M30.4275 147.036H27.8775V153.524H24.8818V136.191H31.1207C32.5071 136.191 33.6625 136.456 34.5868 136.984C35.511 137.495 36.1878 138.172 36.6169 139.014C37.0625 139.839 37.2854 140.722 37.2854 141.663C37.2854 142.819 36.9635 143.867 36.3198 144.808C35.6761 145.732 34.7106 146.376 33.4232 146.739L37.5329 153.524H34.364L30.4275 147.036ZM27.8775 144.56H30.6751C31.7149 144.56 32.5896 144.337 33.2994 143.892C34.0091 143.446 34.364 142.703 34.364 141.663C34.364 140.624 34.0091 139.897 33.2994 139.484C32.6062 139.055 31.7314 138.841 30.6751 138.841H27.8775V144.56Z" fill="black"/>
<path d="M45.6386 153.722C44.2852 153.722 43.1381 153.4 42.1973 152.756C41.273 152.112 40.5798 151.278 40.1177 150.255C39.672 149.216 39.4492 148.109 39.4492 146.937C39.4492 145.749 39.672 144.643 40.1177 143.619C40.5798 142.579 41.273 141.737 42.1973 141.094C43.1381 140.45 44.2935 140.128 45.6634 140.128C47.4789 140.128 48.9149 140.714 49.9712 141.886C51.044 143.058 51.5804 144.75 51.5804 146.962V147.779H42.3706V147.977C42.3706 148.555 42.5027 149.1 42.7667 149.611C43.0473 150.123 43.4269 150.536 43.9056 150.85C44.4007 151.147 44.9619 151.295 45.5891 151.295C46.2988 151.295 46.9012 151.13 47.3964 150.8C47.8916 150.453 48.2629 149.991 48.5105 149.413H51.4566C51.11 150.668 50.4415 151.7 49.4513 152.509C48.4609 153.317 47.1901 153.722 45.6386 153.722ZM48.6838 145.798C48.6508 144.61 48.3537 143.743 47.7925 143.199C47.2478 142.637 46.5299 142.357 45.6386 142.357C44.6813 142.357 43.9138 142.67 43.3362 143.298C42.775 143.908 42.4779 144.742 42.4449 145.798H48.6838Z" fill="black"/>
<path d="M58.9615 153.722C57.8721 153.722 56.9314 153.515 56.1391 153.103C55.3469 152.69 54.7444 152.154 54.3318 151.493C53.9192 150.816 53.7129 150.107 53.7129 149.364V149.216H56.659V149.364C56.659 149.876 56.8654 150.338 57.278 150.751C57.6906 151.163 58.2765 151.369 59.0357 151.369C59.6629 151.369 60.1746 151.221 60.5707 150.924C60.9669 150.626 61.1649 150.214 61.1649 149.686C61.1649 149.224 60.9916 148.86 60.645 148.596C60.3149 148.332 59.9022 148.167 59.4071 148.101L57.8474 147.804C56.8406 147.639 55.9493 147.268 55.1736 146.69C54.4143 146.095 54.0347 145.212 54.0347 144.04C54.0347 142.819 54.4804 141.861 55.3716 141.168C56.2629 140.475 57.41 140.128 58.8129 140.128C59.8362 140.128 60.7193 140.318 61.462 140.698C62.2212 141.077 62.7907 141.572 63.1702 142.184C63.5664 142.794 63.7644 143.454 63.7644 144.164V144.263H60.8183V144.189C60.8183 143.743 60.645 143.322 60.2984 142.926C59.9683 142.53 59.4401 142.332 58.7139 142.332C58.1032 142.332 57.6163 142.488 57.2532 142.802C56.8901 143.1 56.7085 143.495 56.7085 143.991C56.7085 144.42 56.8736 144.767 57.2037 145.031C57.5503 145.295 57.9794 145.476 58.4911 145.576L60.1994 145.873C61.2722 146.087 62.1717 146.492 62.8979 147.086C63.6242 147.68 63.9873 148.53 63.9873 149.636C63.9873 150.445 63.7644 151.163 63.3188 151.791C62.8897 152.401 62.2873 152.88 61.5115 153.226C60.7523 153.557 59.9022 153.722 58.9615 153.722Z" fill="black"/>
<path d="M72.2096 153.722C70.8564 153.722 69.7091 153.4 68.7683 152.756C67.8443 152.112 67.151 151.278 66.689 150.255C66.2433 149.216 66.0205 148.109 66.0205 146.937C66.0205 145.749 66.2433 144.643 66.689 143.619C67.151 142.579 67.8443 141.737 68.7683 141.094C69.7091 140.45 70.8644 140.128 72.2344 140.128C74.0503 140.128 75.4865 140.714 76.5422 141.886C77.6153 143.058 78.1515 144.75 78.1515 146.962V147.779H68.9422V147.977C68.9422 148.555 69.0739 149.1 69.338 149.611C69.6188 150.123 69.9979 150.536 70.4766 150.85C70.9721 151.147 71.533 151.295 72.1602 151.295C72.8702 151.295 73.4726 151.13 73.9674 150.8C74.4628 150.453 74.8339 149.991 75.082 149.413H78.0278C77.6815 150.668 77.0129 151.7 76.0227 152.509C75.0325 153.317 73.7615 153.722 72.2096 153.722ZM75.2551 145.798C75.2224 144.61 74.9248 143.743 74.3639 143.199C73.819 142.637 73.1009 142.357 72.2096 142.357C71.2529 142.357 70.4853 142.67 69.9076 143.298C69.346 143.908 69.0492 144.742 69.0164 145.798H75.2551Z" fill="black"/>
<path d="M85.4829 153.722C83.8328 153.722 82.5451 153.095 81.6211 151.84C80.697 150.586 80.2344 148.951 80.2344 146.937C80.2344 144.89 80.7051 143.248 81.6458 142.01C82.5865 140.755 83.8903 140.128 85.5571 140.128C86.6964 140.128 87.5877 140.392 88.2316 140.92C88.8915 141.432 89.3622 142.002 89.6423 142.629H89.8402V140.45H92.861V153.524H89.8402V151.122H89.6423C89.3287 151.799 88.842 152.401 88.1821 152.929C87.5215 153.458 86.6222 153.722 85.4829 153.722ZM86.548 151.246C87.6205 151.246 88.4295 150.825 88.9737 149.983C89.5353 149.141 89.8155 148.118 89.8155 146.913C89.8155 145.708 89.5353 144.692 88.9737 143.867C88.4295 143.025 87.6205 142.604 86.548 142.604C85.4421 142.604 84.6164 143.025 84.0722 143.867C83.544 144.692 83.2799 145.708 83.2799 146.913C83.2799 148.118 83.552 149.141 84.0969 149.983C84.6412 150.825 85.4582 151.246 86.548 151.246Z" fill="black"/>
<path d="M96.1328 140.45H99.1034V142.53H99.2766C99.4912 141.952 99.8797 141.465 100.441 141.069C101.018 140.656 101.752 140.45 102.644 140.45C102.957 140.45 103.28 140.491 103.61 140.574L103.485 143.372C103.238 143.289 103.023 143.239 102.842 143.223C102.66 143.19 102.429 143.174 102.149 143.174C101.142 143.174 100.382 143.446 99.871 143.991C99.3595 144.535 99.1034 145.443 99.1034 146.715V153.524H96.1328V140.45Z" fill="black"/>
<path d="M111.088 153.722C109.702 153.722 108.538 153.4 107.598 152.756C106.673 152.112 105.98 151.278 105.518 150.255C105.072 149.216 104.85 148.101 104.85 146.913C104.85 145.74 105.072 144.643 105.518 143.619C105.98 142.579 106.673 141.737 107.598 141.094C108.538 140.45 109.702 140.128 111.088 140.128C112.821 140.128 114.183 140.623 115.174 141.614C116.18 142.604 116.782 143.842 116.981 145.328H114.059C113.943 144.519 113.638 143.867 113.143 143.372C112.648 142.86 111.971 142.604 111.113 142.604C110.007 142.604 109.182 143.025 108.637 143.867C108.092 144.692 107.82 145.708 107.82 146.913C107.82 148.15 108.092 149.191 108.637 150.033C109.182 150.858 110.007 151.27 111.113 151.27C111.955 151.27 112.623 151.014 113.118 150.503C113.63 149.991 113.943 149.331 114.059 148.522H116.981C116.782 150.008 116.18 151.246 115.174 152.236C114.183 153.226 112.821 153.722 111.088 153.722Z" fill="black"/>
<path d="M119.536 135.102H122.556V142.58H122.729C123.043 141.903 123.538 141.325 124.215 140.846C124.908 140.368 125.75 140.128 126.74 140.128C128.424 140.128 129.637 140.673 130.38 141.762C131.122 142.852 131.494 144.115 131.494 145.551V153.524H128.498V146.021C128.498 144.948 128.234 144.123 127.706 143.545C127.194 142.951 126.468 142.654 125.527 142.654C124.636 142.654 123.918 142.967 123.373 143.595C122.829 144.206 122.556 145.014 122.556 146.021V153.524H119.536V135.102Z" fill="black"/>
<path d="M441.247 64.8638H234.718C229.558 64.8638 225.375 69.4965 225.375 75.2112V102.441C225.375 108.156 229.558 112.789 234.718 112.789H441.247C446.406 112.789 450.589 108.156 450.589 102.441V75.2112C450.589 69.4965 446.406 64.8638 441.247 64.8638Z" stroke="black" stroke-width="1.04893"/>
<path d="M263.417 97.0605C261.255 97.0605 259.539 96.4085 258.268 95.1046C256.997 93.7839 256.361 91.8199 256.361 89.2113V79.4805H259.357V89.0381C259.357 90.425 259.637 91.63 260.198 92.6531C260.759 93.6769 261.833 94.1885 263.417 94.1885C264.952 94.1885 266.009 93.6769 266.586 92.6531C267.164 91.63 267.453 90.425 267.453 89.0381V79.4805H270.399V89.2113C270.399 91.8199 269.764 93.7839 268.493 95.1046C267.238 96.4085 265.546 97.0605 263.417 97.0605Z" fill="black"/>
<path d="M273.654 79.4805H276.675V96.8131H273.654V79.4805Z" fill="black"/>
<path d="M296.353 96.8133H293.836L292.128 94.8841H292.017L291.907 95.068C291.613 95.5214 291.179 95.95 290.603 96.3539C290.028 96.7584 289.305 96.9604 288.436 96.9604C287.762 96.9604 287.156 96.8253 286.617 96.5558C286.078 96.2863 285.656 95.9005 285.35 95.399C285.044 94.8841 284.891 94.2843 284.891 93.5982C284.891 92.7529 285.111 92.0488 285.552 91.4858C286.005 90.9221 286.593 90.5061 287.315 90.2366L287.848 90.034V89.9611L287.756 89.8508C287.389 89.4462 287.076 89.0236 286.819 88.5829C286.562 88.1423 286.434 87.6033 286.434 86.966C286.434 86.2686 286.605 85.6741 286.948 85.1846C287.303 84.6945 287.762 84.3274 288.325 84.082C288.901 83.8372 289.519 83.7148 290.181 83.7148C290.867 83.7148 291.503 83.8492 292.091 84.1187C292.691 84.3762 293.175 84.768 293.542 85.2943C293.909 85.8212 294.093 86.4645 294.093 87.2235V87.6461H291.815V87.3519C291.815 86.8009 291.656 86.3722 291.338 86.066C291.02 85.7597 290.634 85.6066 290.181 85.6066C289.752 85.6066 289.385 85.7356 289.079 85.9924C288.773 86.2499 288.619 86.617 288.619 87.0951C288.619 87.499 288.711 87.8541 288.895 88.1603C289.091 88.4666 289.434 88.8952 289.923 89.4462L291.871 91.6697L292.936 89.7772H295.122L293.12 93.102L296.353 96.8133ZM290.933 93.5066L288.968 91.247L288.381 91.449C287.952 91.6081 287.615 91.8529 287.37 92.1839C287.138 92.5022 287.021 92.882 287.021 93.3227C287.021 93.8369 287.181 94.2535 287.499 94.5718C287.829 94.8901 288.258 95.0499 288.785 95.0499C289.323 95.0499 289.746 94.9148 290.052 94.6454C290.358 94.3638 290.621 94.0395 290.842 93.6717L290.933 93.5066Z" fill="black"/>
<path d="M310.335 97.0605C308.173 97.0605 306.456 96.4085 305.185 95.1046C303.914 93.7839 303.279 91.8199 303.279 89.2113V79.4805H306.275V89.0381C306.275 90.425 306.555 91.63 307.116 92.6531C307.678 93.6769 308.75 94.1885 310.335 94.1885C311.87 94.1885 312.927 93.6769 313.504 92.6531C314.082 91.63 314.371 90.425 314.371 89.0381V79.4805H317.317V89.2113C317.317 91.8199 316.681 93.7839 315.41 95.1046C314.156 96.4085 312.464 97.0605 310.335 97.0605Z" fill="black"/>
<path d="M325.229 88.1468L319.56 79.4805H322.852L327.011 86.0417H327.16L331.319 79.4805H334.637L328.942 88.1468L334.637 96.8131H331.319L327.16 90.2512H327.011L322.852 96.8131H319.535L325.229 88.1468Z" fill="black"/>
<path d="M342.595 79.4561H349.205C350.74 79.4561 352.093 79.8024 353.265 80.4959C354.437 81.1893 355.344 82.1877 355.988 83.4923C356.632 84.7963 356.954 86.3396 356.954 88.1224C356.954 89.9218 356.624 91.4732 355.963 92.7772C355.32 94.0811 354.412 95.0802 353.24 95.7736C352.068 96.4503 350.707 96.7887 349.155 96.7887H342.595V79.4561ZM348.636 94.0898C350.203 94.0898 351.45 93.611 352.374 92.6535C353.298 91.6798 353.76 90.1612 353.76 88.0976C353.76 86.0507 353.298 84.5482 352.374 83.5913C351.45 82.617 350.203 82.1302 348.636 82.1302H345.516V94.0898H348.636Z" fill="black"/>
<path d="M365.189 97.0114C363.835 97.0114 362.688 96.6898 361.748 96.0458C360.823 95.4019 360.13 94.5687 359.668 93.5449C359.222 92.5051 358.999 91.399 358.999 90.2268C358.999 89.0385 359.222 87.9325 359.668 86.9087C360.13 85.8689 360.823 85.027 361.748 84.3837C362.688 83.7398 363.844 83.4175 365.214 83.4175C367.029 83.4175 368.465 84.0039 369.522 85.1755C370.594 86.3477 371.13 88.0395 371.13 90.2516V91.0687H361.921V91.2673C361.921 91.8451 362.053 92.3894 362.317 92.9009C362.597 93.4132 362.977 93.8257 363.456 94.1394C363.951 94.4363 364.512 94.5847 365.14 94.5847C365.849 94.5847 366.451 94.4202 366.947 94.0899C367.442 93.7428 367.813 93.2808 368.061 92.703H371.006C370.66 93.9575 369.992 94.9893 369.001 95.7984C368.011 96.6069 366.74 97.0114 365.189 97.0114ZM368.234 89.088C368.201 87.8998 367.904 87.0331 367.343 86.4881C366.798 85.9271 366.08 85.6462 365.189 85.6462C364.232 85.6462 363.464 85.9599 362.886 86.5871C362.325 87.1976 362.028 88.0315 361.995 89.088H368.234Z" fill="black"/>
<path d="M378.512 97.0114C377.422 97.0114 376.482 96.8055 375.689 96.3922C374.897 95.9796 374.295 95.4433 373.882 94.7833C373.47 94.1059 373.264 93.3964 373.264 92.6535V92.5051H376.21V92.6535C376.21 93.1651 376.416 93.6278 376.829 94.0404C377.241 94.453 377.827 94.6589 378.586 94.6589C379.214 94.6589 379.725 94.5105 380.122 94.2136C380.517 93.9167 380.715 93.5034 380.715 92.9758C380.715 92.5131 380.542 92.15 380.196 91.8859C379.865 91.6217 379.453 91.4566 378.958 91.391L377.398 91.0935C376.391 90.9283 375.5 90.5572 374.724 89.9794C373.965 89.3849 373.585 88.5022 373.585 87.33C373.585 86.1083 374.031 85.1507 374.922 84.458C375.814 83.7645 376.96 83.4175 378.364 83.4175C379.387 83.4175 380.27 83.6074 381.013 83.9872C381.772 84.367 382.341 84.8619 382.721 85.4731C383.117 86.0836 383.315 86.7442 383.315 87.4537V87.5527H380.369V87.4785C380.369 87.0331 380.196 86.6118 379.849 86.216C379.519 85.8194 378.991 85.6215 378.264 85.6215C377.654 85.6215 377.167 85.778 376.804 86.0923C376.441 86.3892 376.259 86.785 376.259 87.2805C376.259 87.7098 376.424 88.0562 376.754 88.3204C377.101 88.5845 377.53 88.7664 378.042 88.8654L379.75 89.1623C380.823 89.3769 381.722 89.7815 382.448 90.3753C383.174 90.9697 383.538 91.8203 383.538 92.9257C383.538 93.7348 383.315 94.453 382.87 95.0802C382.44 95.6907 381.838 96.1695 381.062 96.5166C380.303 96.8463 379.453 97.0114 378.512 97.0114Z" fill="black"/>
<path d="M386.363 83.7397H389.359V96.8134H386.363V83.7397ZM387.824 81.4367C387.328 81.4367 386.916 81.2716 386.586 80.9419C386.256 80.5948 386.091 80.1823 386.091 79.7035C386.091 79.2086 386.256 78.7954 386.586 78.4657C386.916 78.1354 387.328 77.9702 387.824 77.9702C388.319 77.9702 388.732 78.1434 389.061 78.4905C389.392 78.8201 389.557 79.2247 389.557 79.7035C389.557 80.1823 389.392 80.5948 389.061 80.9419C388.732 81.2716 388.319 81.4367 387.824 81.4367Z" fill="black"/>
<path d="M398.975 102.211C398.084 102.211 397.316 102.087 396.672 101.84V99.4132C396.838 99.4627 397.11 99.5122 397.489 99.5617C397.869 99.6279 398.232 99.6606 398.579 99.6606C399.784 99.6606 400.651 99.3142 401.179 98.6208C401.706 97.9441 401.97 97.0855 401.97 96.0457V94.1145H401.772C401.459 94.7745 400.955 95.3689 400.262 95.8972C399.569 96.4088 398.686 96.6649 397.613 96.6649C396.541 96.6649 395.608 96.392 394.816 95.8477C394.023 95.2867 393.413 94.5103 392.984 93.52C392.554 92.5129 392.34 91.3574 392.34 90.0535C392.34 88.7328 392.554 87.5693 392.984 86.5622C393.413 85.5551 394.023 84.7795 394.816 84.2345C395.608 83.6734 396.541 83.3926 397.613 83.3926C398.719 83.3926 399.619 83.6734 400.312 84.2345C401.022 84.7795 401.508 85.382 401.772 86.042H401.97V83.7644H404.966V96.0457C404.966 96.9203 404.801 97.8204 404.471 98.7445C404.157 99.6693 403.555 100.478 402.664 101.171C401.772 101.865 400.543 102.211 398.975 102.211ZM398.703 94.1887C399.759 94.1887 400.56 93.7761 401.104 92.9503C401.666 92.109 401.946 91.1267 401.946 90.004C401.946 88.898 401.666 87.9324 401.104 87.1072C400.56 86.2814 399.759 85.8688 398.703 85.8688C397.63 85.8688 396.813 86.2814 396.252 87.1072C395.707 87.9156 395.435 88.8812 395.435 90.004C395.435 91.1428 395.707 92.1251 396.252 92.9503C396.796 93.7761 397.613 94.1887 398.703 94.1887Z" fill="black"/>
<path d="M408.284 83.7398H411.304V85.8689H411.477C411.792 85.1922 412.286 84.6144 412.963 84.1357C413.656 83.6569 414.498 83.4175 415.488 83.4175C417.172 83.4175 418.385 83.9625 419.128 85.0518C419.87 86.1418 420.242 87.4043 420.242 88.8406V96.8135H417.246V89.3107C417.246 88.2381 416.982 87.4123 416.454 86.8345C415.942 86.2407 415.232 85.9431 414.325 85.9431C413.351 85.9431 412.6 86.2568 412.072 86.884C411.56 87.5119 411.304 88.3204 411.304 89.3107V96.8135H408.284V83.7398Z" fill="black"/>
<path d="M558.368 197.007H408.299C404.062 197.007 400.627 200.443 400.627 204.681V236.556C400.627 240.794 404.062 244.23 408.299 244.23H558.368C562.605 244.23 566.04 240.794 566.04 236.556V204.681C566.04 200.443 562.605 197.007 558.368 197.007Z" stroke="black" stroke-width="1.05"/>
<path d="M419.74 212.87H422.736L427.415 227.059H427.564L432.218 212.87H435.239L429.446 230.227H425.509L419.74 212.87Z" fill="black"/>
<path d="M441.313 230.401C439.662 230.401 438.375 229.774 437.45 228.519C436.526 227.265 436.063 225.63 436.063 223.617C436.063 221.57 436.534 219.927 437.475 218.689C438.416 217.435 439.719 216.808 441.387 216.808C442.526 216.808 443.417 217.072 444.061 217.6C444.721 218.112 445.191 218.681 445.471 219.309H445.67V217.129H448.69V230.203H445.67V227.801H445.471C445.158 228.478 444.671 229.081 444.011 229.609C443.351 230.137 442.451 230.401 441.313 230.401ZM442.377 227.925C443.45 227.925 444.259 227.504 444.803 226.662C445.364 225.82 445.645 224.797 445.645 223.592C445.645 222.387 445.364 221.371 444.803 220.546C444.259 219.704 443.45 219.284 442.377 219.284C441.271 219.284 440.446 219.704 439.901 220.546C439.373 221.371 439.109 222.387 439.109 223.592C439.109 224.797 439.381 225.82 439.926 226.662C440.471 227.504 441.288 227.925 442.377 227.925Z" fill="black"/>
<path d="M456.344 230.302C455.205 230.302 454.364 230.128 453.819 229.782C453.274 229.419 452.927 228.973 452.779 228.445C452.647 227.9 452.581 227.207 452.581 226.365V211.632H455.576V225.795C455.576 226.407 455.601 226.86 455.651 227.157C455.717 227.454 455.882 227.694 456.146 227.876C456.41 228.04 456.831 228.123 457.408 228.123C457.623 228.123 457.879 228.106 458.176 228.074V230.153C457.648 230.252 457.037 230.302 456.344 230.302Z" fill="black"/>
<path d="M461.469 217.129H464.465V230.203H461.469V217.129ZM462.93 214.826C462.435 214.826 462.022 214.662 461.692 214.332C461.362 213.984 461.197 213.572 461.197 213.093C461.197 212.598 461.362 212.186 461.692 211.855C462.022 211.525 462.435 211.36 462.93 211.36C463.425 211.36 463.838 211.534 464.168 211.88C464.498 212.21 464.663 212.615 464.663 213.093C464.663 213.572 464.498 213.984 464.168 214.332C463.838 214.662 463.425 214.826 462.93 214.826Z" fill="black"/>
<path d="M473.166 230.401C472.06 230.401 471.111 230.112 470.319 229.534C469.527 228.957 468.924 228.156 468.512 227.133C468.099 226.109 467.893 224.937 467.893 223.617C467.893 221.57 468.355 219.927 469.279 218.689C470.22 217.435 471.532 216.808 473.215 216.808C474.354 216.808 475.254 217.072 475.914 217.6C476.574 218.112 477.044 218.681 477.325 219.309H477.523V211.608H480.544V230.203H477.523V227.801H477.325C477.012 228.462 476.516 229.064 475.84 229.609C475.18 230.138 474.288 230.401 473.166 230.401ZM474.23 227.975C475.303 227.975 476.112 227.554 476.657 226.712C477.218 225.854 477.498 224.822 477.498 223.617C477.498 222.412 477.218 221.396 476.657 220.571C476.112 219.729 475.303 219.309 474.23 219.309C473.141 219.309 472.324 219.729 471.779 220.571C471.235 221.396 470.962 222.412 470.962 223.617C470.962 224.838 471.235 225.87 471.779 226.712C472.324 227.554 473.141 227.975 474.23 227.975Z" fill="black"/>
<path d="M488.819 230.401C487.168 230.401 485.881 229.774 484.956 228.519C484.032 227.265 483.57 225.63 483.57 223.617C483.57 221.57 484.04 219.927 484.981 218.689C485.922 217.435 487.226 216.808 488.893 216.808C490.032 216.808 490.923 217.072 491.567 217.6C492.227 218.112 492.697 218.681 492.978 219.309H493.176V217.129H496.196V230.203H493.176V227.801H492.978C492.665 228.478 492.177 229.081 491.517 229.609C490.857 230.137 489.958 230.401 488.819 230.401ZM489.883 227.925C490.956 227.925 491.765 227.504 492.31 226.662C492.871 225.82 493.151 224.797 493.151 223.592C493.151 222.387 492.871 221.371 492.31 220.546C491.765 219.704 490.956 219.284 489.883 219.284C488.777 219.284 487.952 219.704 487.407 220.546C486.879 221.371 486.615 222.387 486.615 223.592C486.615 224.797 486.888 225.82 487.432 226.662C487.977 227.504 488.794 227.925 489.883 227.925Z" fill="black"/>
<path d="M504.515 219.482V225.894C504.515 226.489 504.54 226.926 504.59 227.207C504.656 227.487 504.821 227.711 505.085 227.876C505.349 228.04 505.77 228.123 506.347 228.123C506.644 228.123 507.024 228.082 507.486 227.999V230.104C507.387 230.137 507.107 230.178 506.644 230.227C506.182 230.277 505.728 230.302 505.283 230.302C504.144 230.302 503.302 230.137 502.758 229.807C502.213 229.477 501.866 229.056 501.718 228.544C501.586 228.032 501.519 227.363 501.519 226.538V219.482H499.242V217.129H501.519V212.87H504.515V217.129H507.486V219.482H504.515Z" fill="black"/>
<path d="M511.104 217.129H514.099V230.203H511.104V217.129ZM512.564 214.826C512.069 214.826 511.657 214.662 511.327 214.332C510.996 213.984 510.831 213.572 510.831 213.093C510.831 212.598 510.996 212.186 511.327 211.855C511.657 211.525 512.069 211.36 512.564 211.36C513.06 211.36 513.472 211.534 513.802 211.88C514.132 212.21 514.297 212.615 514.297 213.093C514.297 213.572 514.132 213.984 513.802 214.332C513.472 214.662 513.06 214.826 512.564 214.826Z" fill="black"/>
<path d="M523.791 230.401C522.437 230.401 521.29 230.087 520.35 229.46C519.425 228.832 518.732 228.007 518.27 226.984C517.808 225.96 517.576 224.838 517.576 223.617C517.576 222.412 517.808 221.297 518.27 220.274C518.732 219.234 519.425 218.4 520.35 217.773C521.29 217.146 522.437 216.832 523.791 216.832C525.144 216.832 526.283 217.146 527.207 217.773C528.148 218.4 528.841 219.225 529.287 220.249C529.749 221.272 529.98 222.387 529.98 223.592C529.98 224.797 529.749 225.919 529.287 226.959C528.841 227.999 528.148 228.832 527.207 229.46C526.283 230.087 525.144 230.401 523.791 230.401ZM523.791 227.925C524.831 227.925 525.631 227.512 526.192 226.687C526.753 225.861 527.034 224.83 527.034 223.592C527.034 222.353 526.753 221.33 526.192 220.521C525.631 219.696 524.831 219.283 523.791 219.283C522.734 219.283 521.925 219.696 521.364 220.521C520.82 221.33 520.547 222.353 520.547 223.592C520.547 224.83 520.828 225.861 521.389 226.687C521.95 227.512 522.75 227.925 523.791 227.925Z" fill="black"/>
<path d="M533.146 217.129H536.166V219.259H536.339C536.652 218.582 537.148 218.004 537.824 217.526C538.518 217.047 539.359 216.808 540.35 216.808C542.033 216.808 543.246 217.352 543.989 218.442C544.732 219.531 545.103 220.794 545.103 222.23V230.203H542.107V222.701C542.107 221.628 541.843 220.802 541.315 220.225C540.804 219.63 540.094 219.333 539.186 219.333C538.212 219.333 537.461 219.647 536.933 220.274C536.422 220.901 536.166 221.71 536.166 222.701V230.203H533.146V217.129Z" fill="black"/>
</svg>
