<svg width="253" height="85" viewBox="0 0 253 85" fill="none" xmlns="http://www.w3.org/2000/svg">
<path d="M3.96 57V24.88H14.212L27.72 51.808H29.172L28.292 52.6V24.88H34.188V57H23.892L10.384 30.072H8.888L9.768 29.28V57H3.96ZM50.9603 66.416C49.8163 66.416 48.6429 66.372 47.4403 66.284C46.2669 66.196 45.1669 66.0787 44.1403 65.932V60.828C45.1963 60.9453 46.3256 61.048 47.5283 61.136C48.7309 61.2533 49.8603 61.312 50.9163 61.312C52.8816 61.312 54.4656 61.0773 55.6683 60.608C56.9003 60.1387 57.7949 59.3907 58.3523 58.364C58.9389 57.3667 59.2323 56.0907 59.2323 54.536V49.828L60.5523 46.836C60.4643 49.036 60.0096 50.9133 59.1883 52.468C58.3669 53.9933 57.2523 55.1667 55.8443 55.988C54.4363 56.78 52.8083 57.176 50.9603 57.176C49.3176 57.176 47.8216 56.868 46.4723 56.252C45.1523 55.636 44.0083 54.7853 43.0403 53.7C42.1016 52.6147 41.3683 51.3387 40.8403 49.872C40.3123 48.4053 40.0483 46.836 40.0483 45.164V44.24C40.0483 42.568 40.3123 41.0133 40.8403 39.576C41.3976 38.1093 42.1749 36.8333 43.1723 35.748C44.1696 34.6627 45.3576 33.8267 46.7363 33.24C48.1149 32.6533 49.6403 32.36 51.3123 32.36C53.2776 32.36 54.9789 32.7853 56.4163 33.636C57.8829 34.4867 59.0269 35.7187 59.8483 37.332C60.6696 38.9453 61.1243 40.9253 61.2123 43.272L60.1562 43.448V33.108H64.9963V54.184C64.9963 57.088 64.4976 59.4347 63.5003 61.224C62.5029 63.0133 60.9629 64.3187 58.8803 65.14C56.8269 65.9907 54.1869 66.416 50.9603 66.416ZM52.7203 51.94C53.8936 51.94 54.9643 51.676 55.9323 51.148C56.9003 50.62 57.6776 49.8573 58.2643 48.86C58.8509 47.8627 59.1443 46.66 59.1443 45.252V43.712C59.1443 42.3627 58.8363 41.2187 58.2203 40.28C57.6336 39.3413 56.8563 38.6373 55.8883 38.168C54.9203 37.6693 53.8643 37.42 52.7203 37.42C51.4296 37.42 50.2856 37.728 49.2883 38.344C48.3203 38.9307 47.5576 39.7667 47.0003 40.852C46.4429 41.9373 46.1643 43.228 46.1643 44.724C46.1643 46.1907 46.4429 47.4667 47.0003 48.552C47.5576 49.6373 48.3203 50.4733 49.2883 51.06C50.2856 51.6467 51.4296 51.94 52.7203 51.94ZM83.1514 57.836C81.0394 57.836 79.1767 57.4987 77.5634 56.824C75.9501 56.1493 74.5861 55.24 73.4714 54.096C72.3567 52.9227 71.5061 51.6027 70.9194 50.136C70.3621 48.6693 70.0834 47.144 70.0834 45.56V44.636C70.0834 42.9933 70.3767 41.4387 70.9634 39.972C71.5794 38.476 72.4447 37.156 73.5594 36.012C74.7034 34.8387 76.0821 33.9293 77.6954 33.284C79.3087 32.6093 81.1274 32.272 83.1514 32.272C85.1754 32.272 86.9941 32.6093 88.6074 33.284C90.2207 33.9293 91.5847 34.8387 92.6994 36.012C93.8434 37.156 94.7087 38.476 95.2954 39.972C95.8821 41.4387 96.1754 42.9933 96.1754 44.636V45.56C96.1754 47.144 95.8821 48.6693 95.2954 50.136C94.7381 51.6027 93.9021 52.9227 92.7874 54.096C91.6727 55.24 90.3087 56.1493 88.6954 56.824C87.0821 57.4987 85.2341 57.836 83.1514 57.836ZM83.1514 52.6C84.6474 52.6 85.9087 52.2773 86.9354 51.632C87.9621 50.9573 88.7394 50.0627 89.2674 48.948C89.7954 47.804 90.0594 46.5133 90.0594 45.076C90.0594 43.6093 89.7807 42.3187 89.2234 41.204C88.6954 40.06 87.9034 39.1653 86.8474 38.52C85.8207 37.8453 84.5887 37.508 83.1514 37.508C81.7141 37.508 80.4674 37.8453 79.4114 38.52C78.3847 39.1653 77.5927 40.06 77.0354 41.204C76.4781 42.3187 76.1994 43.6093 76.1994 45.076C76.1994 46.5133 76.4634 47.804 76.9914 48.948C77.5487 50.0627 78.3407 50.9573 79.3674 51.632C80.3941 52.2773 81.6554 52.6 83.1514 52.6ZM112.135 57.836C110.052 57.836 108.248 57.484 106.723 56.78C105.227 56.076 103.965 55.1373 102.939 53.964C101.941 52.7907 101.193 51.4707 100.695 50.004C100.196 48.5373 99.9467 47.0413 99.9467 45.516V44.68C99.9467 43.0667 100.196 41.5267 100.695 40.06C101.223 38.564 102 37.244 103.027 36.1C104.053 34.9267 105.315 34.0027 106.811 33.328C108.336 32.624 110.096 32.272 112.091 32.272C114.173 32.272 116.036 32.6827 117.679 33.504C119.321 34.296 120.627 35.4107 121.595 36.848C122.592 38.2853 123.149 39.9573 123.267 41.864H117.327C117.18 40.632 116.652 39.6053 115.743 38.784C114.863 37.9627 113.645 37.552 112.091 37.552C110.741 37.552 109.612 37.8747 108.703 38.52C107.823 39.1653 107.163 40.06 106.723 41.204C106.283 42.3187 106.063 43.6093 106.063 45.076C106.063 46.484 106.268 47.76 106.679 48.904C107.119 50.048 107.779 50.9427 108.659 51.588C109.568 52.2333 110.727 52.556 112.135 52.556C113.191 52.556 114.1 52.3653 114.863 51.984C115.625 51.6027 116.227 51.0747 116.667 50.4C117.136 49.7253 117.429 48.9627 117.547 48.112H123.487C123.369 50.048 122.797 51.7493 121.771 53.216C120.773 54.6533 119.439 55.7827 117.767 56.604C116.124 57.4253 114.247 57.836 112.135 57.836ZM128.386 57V24.88H134.502V43.624H133.446C133.446 41.2187 133.754 39.18 134.37 37.508C134.986 35.836 135.895 34.56 137.098 33.68C138.33 32.8 139.885 32.36 141.762 32.36H142.026C144.754 32.36 146.822 33.2987 148.23 35.176C149.638 37.0533 150.342 39.7813 150.342 43.36V57H144.226V42.788C144.226 41.2627 143.786 40.06 142.906 39.18C142.055 38.3 140.926 37.86 139.518 37.86C138.022 37.86 136.805 38.3587 135.866 39.356C134.957 40.324 134.502 41.6 134.502 43.184V57H128.386ZM156.917 57V33.108H161.757V43.36H161.317C161.317 40.9253 161.64 38.9013 162.285 37.288C162.931 35.6453 163.884 34.4133 165.145 33.592C166.436 32.7707 168.035 32.36 169.941 32.36H170.205C173.051 32.36 175.207 33.284 176.673 35.132C178.14 36.9507 178.873 39.6787 178.873 43.316V57H172.757V42.788C172.757 41.3213 172.332 40.1333 171.481 39.224C170.66 38.3147 169.516 37.86 168.049 37.86C166.553 37.86 165.336 38.3293 164.397 39.268C163.488 40.1773 163.033 41.4093 163.033 42.964V57H156.917Z" fill="#191919"/>
</svg>
