<svg width="70" height="70" viewBox="0 0 70 70" fill="none" xmlns="http://www.w3.org/2000/svg">
<path fill-rule="evenodd" clip-rule="evenodd" d="M47.264 27H68.7347C69.4307 27 70 27.5693 70 28.2653V28.4013C70 29.0973 69.4307 29.6667 68.7347 29.6667H47.264C46.568 29.6667 46 29.0973 46 28.4013V28.2653C46 27.5693 46.568 27 47.264 27ZM68.7347 33.6667H47.264C46.568 33.6667 46 34.236 46 34.932V35.068C46 35.764 46.568 36.3333 47.264 36.3333H68.7347C69.4307 36.3333 70 35.764 70 35.068V34.932C70 34.236 69.4307 33.6667 68.7347 33.6667ZM68.7347 40.3333H47.264C46.568 40.3333 46 40.9027 46 41.5987V41.7347C46 42.4307 46.568 43 47.264 43H68.7347C69.4307 43 70 42.4307 70 41.7347V41.5987C70 40.9027 69.4307 40.3333 68.7347 40.3333Z" fill="black"/>
</svg>
