<svg width="48" height="48" viewBox="0 0 48 48" fill="none" xmlns="http://www.w3.org/2000/svg">
<g clip-path="url(#clip0_446_12)">
<path d="M9.77148 26.6033C10.1598 26.6033 10.4746 26.2885 10.4746 25.9002V24.8278C10.4746 24.4394 10.1598 24.1246 9.77148 24.1246C9.38317 24.1246 9.06836 24.4394 9.06836 24.8278V25.9001C9.06836 26.2885 9.38317 26.6033 9.77148 26.6033V26.6033Z" fill="black"/>
<path d="M20.9326 26.6033C21.3209 26.6033 21.6357 26.2885 21.6357 25.9002V24.8278C21.6357 24.4394 21.3209 24.1246 20.9326 24.1246C20.5443 24.1246 20.2295 24.4394 20.2295 24.8278V25.9001C20.2295 26.2885 20.5443 26.6033 20.9326 26.6033V26.6033Z" fill="black"/>
<path d="M15.3522 27.2417C16.1193 27.2417 16.8488 26.9095 17.3536 26.3302C17.6088 26.0374 17.5782 25.5933 17.2856 25.3382C16.9928 25.083 16.5486 25.1135 16.2935 25.4062C16.0558 25.6789 15.7127 25.8353 15.3522 25.8353C14.9918 25.8353 14.6486 25.6789 14.411 25.4062C14.1558 25.1134 13.7117 25.083 13.4189 25.3382C13.1261 25.5933 13.0957 26.0374 13.3509 26.3302C13.8556 26.9094 14.5852 27.2417 15.3522 27.2417V27.2417Z" fill="black"/>
<path d="M8.74275 45.87H42.6883C44.5914 45.87 46.0592 44.1821 45.7861 42.2991C45.1626 37.9989 43.2116 35.7481 41.9656 34.7183C42.892 34.1905 45.6154 31.6406 46.343 30.412L44.8594 31.125L43.5 31.6875C41.5977 33.598 39.016 34.8611 36.0789 34.8611C30.9519 34.8611 26.6644 31.1723 25.7467 26.299C28.5247 25.6361 31.4618 25.8267 33.9381 27.3401C35.031 28.0092 36.3431 28.1228 37.5121 27.6843C38.4917 27.3169 41.1916 25.0516 46.4126 26.2993C46.1883 27.4982 44.5312 30.6518 43.5 31.6875L44.8594 31.125L46.343 30.412C47.4593 28.5268 47.9999 26.4383 47.9999 24.3464C47.9999 22.3733 47.5103 20.4357 46.5823 18.7089C47.3361 17.7968 47.7895 16.6278 47.7895 15.3548C47.7895 12.4472 45.424 10.0816 42.5163 10.0816C40.6233 10.0816 38.9606 11.0848 38.0303 12.587C37.3868 12.4809 36.7326 12.4265 36.0789 12.4265C33.9315 12.4265 31.9149 12.9975 30.1728 13.9952V6.54797C30.1728 4.11188 28.1909 2.13 25.7548 2.13H4.41797C1.98187 2.13 0 4.11188 0 6.54797V41.452C0 43.8881 1.98187 45.87 4.41797 45.87H8.74275ZM8.74275 44.4637C7.69594 44.4637 6.8865 43.5358 7.03659 42.5008C7.72116 37.7799 10.1011 35.9073 10.8939 35.4056C12.4251 36.024 14.0679 36.3162 15.76 36.2597C17.2047 36.2109 18.5548 35.9109 19.8107 35.4062C20.6077 35.911 22.9837 37.7845 23.6676 42.5007C23.8175 43.5346 23.0093 44.4637 21.9614 44.4637H8.74275V44.4637ZM5.94141 14.4612C5.94141 12.329 7.67616 10.5942 9.80841 10.5942C11.2398 10.5942 12.5422 11.3968 13.2083 12.6206C10.5883 13.0983 8.21859 14.439 6.46341 16.4019C6.12338 15.817 5.94141 15.1496 5.94141 14.4612ZM5.53744 20.5662C8.25225 20.3989 11.0834 20.7975 13.463 22.1574C14.6411 22.8298 16.0913 22.8138 17.2417 22.1573C19.4853 20.8752 22.1858 20.4377 24.7775 20.5462C24.3892 21.6994 24.1582 23.0249 24.1582 24.3465C24.1582 25.8446 24.438 27.2954 24.9516 28.6282C24.9525 28.6306 24.9533 28.633 24.9542 28.6354C23.361 32.2023 19.854 34.7176 15.704 34.8547C9.74972 35.0505 4.8375 30.2648 4.8375 24.3464C4.8375 23.0393 5.07272 21.7697 5.53744 20.5662ZM24.5738 44.4637C24.9933 43.8291 25.1696 43.0603 25.0593 42.2991C24.434 37.9872 22.4909 35.7434 21.2442 34.717C23.0872 33.671 24.6399 32.1354 25.7156 30.239C26.7832 32.1091 28.361 33.6709 30.1959 34.716C27.9827 36.542 26.7888 39.4261 26.3719 42.2991C26.2627 43.0522 26.4349 43.8253 26.856 44.4637H24.5738ZM44.3946 42.5008C44.5445 43.5347 43.7363 44.4637 42.6884 44.4637H29.4697C28.4207 44.4637 27.6138 43.5337 27.7636 42.5008C28.151 39.8302 29.3755 36.8564 31.6253 35.4071C33.0387 35.9775 34.5356 36.2673 36.0791 36.2673C37.6076 36.2673 39.1212 35.9792 40.5396 35.4074C41.3385 35.9141 43.7111 37.7885 44.3946 42.5008ZM42.5164 11.4878C44.6486 11.4878 46.3834 13.2226 46.3834 15.3548C46.3834 17.4703 44.6648 19.2218 42.5164 19.2218C40.3881 19.2218 38.6494 17.4911 38.6494 15.3548C38.6494 15.3547 38.6494 15.3545 38.6494 15.3543C38.6494 13.2277 40.3802 11.4878 42.5164 11.4878ZM37.4401 13.9204C37.3049 14.3981 37.2431 14.8903 37.2431 15.3548C37.2431 18.2618 39.608 20.628 42.5164 20.628C43.5881 20.628 44.6322 20.3047 45.5108 19.6959C46.2213 21.1356 46.5937 22.7273 46.5937 24.3463C46.5937 24.5283 46.5889 24.7112 46.5794 24.8942C43.4607 24.1905 40.2372 24.4597 37.4869 26.1406C36.6184 26.6718 35.5399 26.6719 34.6718 26.1405C31.918 24.4573 28.6908 24.1924 25.5798 24.894C25.5706 24.7162 25.5643 24.5557 25.5643 24.3464C25.5643 18.4722 30.3655 13.8326 36.0789 13.8326C36.5341 13.8326 36.9894 13.8621 37.4401 13.9204ZM1.40625 41.452V6.54797C1.40625 4.88729 2.75728 3.53625 4.41797 3.53625H25.7549C27.4156 3.53625 28.7666 4.88729 28.7666 6.54797V14.9329C27.5178 15.9048 26.4764 17.1279 25.7178 18.4571C24.836 16.9079 21.4688 13.8326 19.5319 13.1819L20.8125 14.8594L21.3281 15.7969C22.543 16.8785 23.7059 17.7722 24.4828 19.1289C21.7313 19.0634 18.9142 19.5821 16.5442 20.9361C15.7999 21.3608 14.8863 21.3505 14.1603 20.9363C11.7951 19.5844 8.98744 19.0621 6.22069 19.1289C8.04834 15.9307 11.5176 13.8326 15.352 13.8326C16.618 13.8326 19.937 14.5584 21.3281 15.7969L20.8125 14.8594L19.5319 13.1819C18.1934 12.6805 16.7871 12.4264 15.352 12.4264C15.1269 12.4264 14.9032 12.4347 14.6803 12.4472C13.8741 10.5028 11.9471 9.18788 9.80831 9.18788C6.90066 9.18788 4.53506 11.5535 4.53506 14.4611C4.53506 15.5851 4.89178 16.6673 5.54709 17.5653C4.176 19.5474 3.43116 21.8843 3.43116 24.3463C3.43116 28.7822 5.86678 32.6595 9.47072 34.7123C8.22488 35.7385 6.27 37.9879 5.64488 42.299C5.53453 43.0601 5.71087 43.829 6.13022 44.4637H4.41797C2.75728 44.4637 1.40625 43.1127 1.40625 41.452Z" fill="black"/>
</g>
<defs>
<clipPath id="clip0_446_12">
<rect width="48" height="48" fill="white"/>
</clipPath>
</defs>
</svg>
