<svg width="860" height="821" viewBox="0 0 860 821" fill="none" xmlns="http://www.w3.org/2000/svg">
<rect width="860" height="821" fill="white"/>
<path d="M430.348 301.931C416.629 295.081 422.062 256.588 429.41 241.139C442.425 213.755 474.425 218.399 482.742 255.531C484.558 263.622 495.709 267.173 491.371 280.129C488.337 289.177 476.154 284.47 476.154 284.47C476.154 284.47 438.559 306.032 430.348 301.931Z" fill="black" stroke="black" stroke-width="1.19726" stroke-miterlimit="10" stroke-linecap="round" stroke-linejoin="round"/>
<path d="M572.411 488.669L254.532 485.548" stroke="black" stroke-width="1.19726" stroke-miterlimit="10" stroke-linecap="round" stroke-linejoin="round"/>
<path d="M347.053 660.2L274.79 659.34L280.637 681.136L347.053 681.296V660.2Z" fill="white" stroke="black" stroke-width="1.19726" stroke-miterlimit="10" stroke-linecap="round" stroke-linejoin="round"/>
<path d="M518.72 392.702C518.72 392.702 540.835 423.654 535.832 448.664C530.834 473.668 502.097 490.243 457.693 488.676C461.445 526.186 454.663 661.241 454.663 661.241L347.051 660.2L284.537 659.332V477.725L371.713 410.454C371.719 410.46 413.287 393.775 518.72 392.702Z" fill="black" stroke="black" stroke-width="1.19726" stroke-miterlimit="10" stroke-linecap="round" stroke-linejoin="round"/>
<path d="M407.064 425.53L351.432 476.171L347.053 660.199" stroke="#949494" stroke-width="1.19726" stroke-miterlimit="10" stroke-linecap="round" stroke-linejoin="round"/>
<path d="M463.323 661.316L332.467 660.2L337.466 681.259L456.647 681.704L463.323 661.316Z" fill="white" stroke="black" stroke-width="1.19726" stroke-miterlimit="10" stroke-linecap="round" stroke-linejoin="round"/>
<path d="M290.794 681.295V695.765L252.73 722.738L347.053 723.562V681.295H290.794Z" fill="white" stroke="black" stroke-width="1.19726" stroke-miterlimit="10" stroke-linecap="round" stroke-linejoin="round"/>
<path d="M453.946 681.704L347.053 681.295V697.171L309.225 723.109L452.987 724.825L453.946 681.704Z" fill="white" stroke="black" stroke-width="1.19726" stroke-miterlimit="10" stroke-linecap="round" stroke-linejoin="round"/>
<path d="M434.5 370.864L431.757 339.883L433.943 307.372L431.757 339.883L408 322.082C408 322.082 438.942 278.929 452.696 276.744C460.512 282.367 466.762 273.306 466.762 273.306C466.762 273.306 508.838 274.644 520.084 314.656C495.702 322.472 478.008 327.222 478.008 327.222L473.011 308.004L483.947 360.83L434.5 370.864Z" fill="white" stroke="black" stroke-width="1.19726" stroke-miterlimit="10" stroke-linecap="round" stroke-linejoin="round"/>
<path d="M520.091 314.65C520.091 314.65 535.01 382.391 532.086 387.396C529.17 392.394 447.879 408.863 426.623 409.625C405.368 410.387 411.667 378.842 418.115 375.199C424.567 371.558 483.947 360.825 483.947 360.825L478.008 327.216L520.091 314.65Z" fill="white" stroke="black" stroke-width="1.19726" stroke-miterlimit="10" stroke-linecap="round" stroke-linejoin="round"/>
<path d="M430.815 339.411L411.975 325.097L397.373 349.886L411.975 375.515L434.476 370.647L430.815 339.411Z" fill="white" stroke="black" stroke-width="1.19726" stroke-miterlimit="10" stroke-linecap="round" stroke-linejoin="round"/>
<path d="M466.76 273.3L463.478 263.922C463.478 263.922 466.915 259.233 466.76 256.576C466.605 253.919 471.918 255.795 470.512 250.326C469.106 244.858 462.233 250.953 458.79 252.358C455.346 253.764 448.979 250.413 445.66 250.172C443.399 250.005 441.108 252.192 440.458 253.641C439.145 256.582 440.972 260.8 444.409 262.832C447.846 264.864 453.005 265.18 453.005 265.18L453.518 277.289C453.518 277.289 454.243 279.84 460.969 277.983C467.7 276.111 466.76 273.3 466.76 273.3Z" fill="white" stroke="black" stroke-width="1.19726" stroke-miterlimit="10" stroke-linecap="round" stroke-linejoin="round"/>
<path d="M729.468 411.05H106.848" stroke="black" stroke-width="1.19726" stroke-miterlimit="10" stroke-linecap="round" stroke-linejoin="round"/>
<path d="M659.61 745.934L572.411 411.05" stroke="black" stroke-width="1.19726" stroke-miterlimit="10"/>
<path d="M650.233 411.05L535.839 760" stroke="black" stroke-width="1.19726" stroke-miterlimit="10"/>
<path d="M261.096 411.05L144.826 760" stroke="black" stroke-width="1.19726" stroke-miterlimit="10"/>
<path d="M257.31 696.263L181.397 411.05" stroke="black" stroke-width="1.19726" stroke-miterlimit="10"/>
<path d="M434.476 411.087L377.059 294.643H222.446L273.28 411.087H434.476Z" fill="#DADADA" stroke="black" stroke-width="1.19726" stroke-miterlimit="10" stroke-linecap="round" stroke-linejoin="round"/>
<path d="M314.234 347.26C314.234 347.26 320.173 345.643 324.391 348.616C326.218 349.904 331.984 354.4 328.968 358.149C325.952 361.901 320.328 358.619 318.136 355.336C315.951 352.054 314.234 347.26 314.234 347.26Z" fill="white" stroke="black" stroke-width="1.19726" stroke-miterlimit="10" stroke-linecap="round" stroke-linejoin="round"/>
<path d="M205.891 179.947H28.4638C19.9234 179.947 13 186.871 13 195.413V236.11C13 244.652 19.9234 251.576 28.4638 251.576H205.891C214.431 251.576 221.355 244.652 221.355 236.11V195.413C221.355 186.871 214.431 179.947 205.891 179.947Z" stroke="black" stroke-width="1.04893"/>
<path d="M259.584 102.972C259.584 102.972 231.446 105.151 203.302 131.333" stroke="black" stroke-width="1.25337" stroke-miterlimit="10" stroke-linecap="round" stroke-linejoin="round"/>
<path d="M753.518 242.607C753.518 242.607 743.161 216.352 709.86 197.149" stroke="black" stroke-width="1.25337" stroke-miterlimit="10" stroke-linecap="round" stroke-linejoin="round"/>
<path d="M248.731 115.135C248.731 115.135 228.769 119.72 208.813 136.241" stroke="black" stroke-width="1.25337" stroke-miterlimit="10" stroke-linecap="round" stroke-linejoin="round"/>
<path d="M738.701 235.81C738.701 235.81 728.45 218.076 706.791 203.86" stroke="black" stroke-width="1.25337" stroke-miterlimit="10" stroke-linecap="round" stroke-linejoin="round"/>
<path d="M145.644 292.602C145.644 292.602 149.53 320.558 177.373 347.06" stroke="black" stroke-width="1.25337" stroke-miterlimit="10" stroke-linecap="round" stroke-linejoin="round"/>
<path d="M158.444 302.697C158.444 302.697 164.234 322.345 181.937 341.26" stroke="black" stroke-width="1.25337" stroke-miterlimit="10" stroke-linecap="round" stroke-linejoin="round"/>
<path d="M45.5083 219.885H41.6943V229.587H37.2139V203.667H46.5451C48.6187 203.667 50.3467 204.062 51.7291 204.852C53.1115 205.617 54.1237 206.629 54.7655 207.888C55.432 209.122 55.7653 210.443 55.7653 211.85C55.7653 213.578 55.2839 215.146 54.3211 216.553C53.3584 217.935 51.9143 218.898 49.9888 219.441L56.1355 229.587H51.3959L45.5083 219.885ZM41.6943 216.182H45.8786C47.4338 216.182 48.7421 215.849 49.8036 215.183C50.8651 214.516 51.3959 213.405 51.3959 211.85C51.3959 210.295 50.8651 209.209 49.8036 208.591C48.7668 207.95 47.4585 207.629 45.8786 207.629H41.6943V216.182Z" fill="black"/>
<path d="M68.2596 229.883C66.2353 229.883 64.5197 229.402 63.1126 228.439C61.7302 227.476 60.6934 226.229 60.0022 224.699C59.3356 223.144 59.0024 221.49 59.0024 219.737C59.0024 217.96 59.3356 216.306 60.0022 214.775C60.6934 213.22 61.7302 211.961 63.1126 210.998C64.5197 210.036 66.2477 209.554 68.2966 209.554C71.012 209.554 73.1597 210.431 74.7396 212.183C76.3442 213.936 77.1465 216.466 77.1465 219.774V220.996H63.3718V221.292C63.3718 222.156 63.5693 222.971 63.9642 223.736C64.3839 224.501 64.9517 225.119 65.6676 225.588C66.4081 226.032 67.2474 226.254 68.1855 226.254C69.247 226.254 70.148 226.007 70.8886 225.514C71.6292 224.995 72.1846 224.304 72.5549 223.44H76.9613C76.4429 225.316 75.4431 226.859 73.962 228.069C72.4808 229.278 70.58 229.883 68.2596 229.883ZM72.8141 218.034C72.7647 216.256 72.3204 214.96 71.4811 214.146C70.6664 213.306 69.5926 212.887 68.2596 212.887C66.8278 212.887 65.6799 213.356 64.8159 214.294C63.9766 215.207 63.5322 216.454 63.4829 218.034H72.8141Z" fill="black"/>
<path d="M88.1857 229.883C86.5564 229.883 85.1493 229.574 83.9644 228.957C82.7795 228.34 81.8784 227.538 81.2613 226.55C80.6441 225.538 80.3356 224.477 80.3356 223.366V223.144H84.742V223.366C84.742 224.131 85.0506 224.822 85.6677 225.44C86.2848 226.057 87.1612 226.365 88.2967 226.365C89.2348 226.365 90.0001 226.143 90.5925 225.699C91.185 225.254 91.4812 224.637 91.4812 223.847C91.4812 223.156 91.222 222.613 90.7036 222.218C90.2099 221.823 89.5927 221.576 88.8522 221.477L86.5194 221.033C85.0135 220.786 83.6805 220.231 82.5203 219.367C81.3847 218.478 80.8169 217.157 80.8169 215.405C80.8169 213.578 81.4835 212.146 82.8165 211.109C84.1495 210.073 85.8652 209.554 87.9635 209.554C89.494 209.554 90.8147 209.838 91.9256 210.406C93.0611 210.974 93.9128 211.714 94.4805 212.628C95.073 213.541 95.3692 214.528 95.3692 215.59V215.738H90.9628V215.627C90.9628 214.96 90.7036 214.331 90.1852 213.738C89.6915 213.146 88.9015 212.85 87.8154 212.85C86.902 212.85 86.1738 213.084 85.6307 213.553C85.0876 213.998 84.816 214.59 84.816 215.331C84.816 215.972 85.0629 216.491 85.5566 216.886C86.075 217.281 86.7168 217.552 87.4821 217.701L90.0371 218.145C91.6417 218.466 92.9871 219.071 94.0732 219.959C95.1594 220.848 95.7025 222.119 95.7025 223.773C95.7025 224.983 95.3692 226.057 94.7027 226.995C94.0609 227.908 93.1599 228.624 91.9996 229.142C90.8641 229.636 89.5927 229.883 88.1857 229.883Z" fill="black"/>
<path d="M108 229.883C105.976 229.883 104.26 229.402 102.853 228.439C101.471 227.476 100.434 226.229 99.743 224.699C99.0764 223.144 98.7432 221.49 98.7432 219.737C98.7432 217.96 99.0764 216.306 99.743 214.775C100.434 213.22 101.471 211.961 102.853 210.998C104.26 210.036 105.988 209.554 108.037 209.554C110.753 209.554 112.901 210.431 114.48 212.183C116.085 213.936 116.887 216.466 116.887 219.774V220.996H103.113V221.292C103.113 222.156 103.31 222.971 103.705 223.736C104.125 224.501 104.692 225.119 105.408 225.588C106.149 226.032 106.988 226.254 107.926 226.254C108.988 226.254 109.889 226.007 110.629 225.514C111.37 224.995 111.925 224.304 112.296 223.44H116.702C116.184 225.316 115.184 226.859 113.703 228.069C112.222 229.278 110.321 229.883 108 229.883ZM112.555 218.034C112.506 216.256 112.061 214.96 111.222 214.146C110.407 213.306 109.333 212.887 108 212.887C106.569 212.887 105.421 213.356 104.557 214.294C103.717 215.207 103.273 216.454 103.224 218.034H112.555Z" fill="black"/>
<path d="M127.852 229.883C125.384 229.883 123.458 228.945 122.076 227.069C120.694 225.193 120.002 222.749 120.002 219.737C120.002 216.676 120.706 214.22 122.113 212.368C123.52 210.492 125.47 209.554 127.963 209.554C129.667 209.554 131 209.949 131.963 210.739C132.95 211.504 133.654 212.356 134.073 213.294H134.369V210.036H138.887V229.587H134.369V225.995H134.073C133.604 227.007 132.876 227.908 131.889 228.698C130.901 229.488 129.556 229.883 127.852 229.883ZM129.445 226.18C131.049 226.18 132.259 225.551 133.073 224.292C133.913 223.033 134.332 221.502 134.332 219.7C134.332 217.898 133.913 216.38 133.073 215.146C132.259 213.887 131.049 213.257 129.445 213.257C127.791 213.257 126.556 213.887 125.742 215.146C124.952 216.38 124.557 217.898 124.557 219.7C124.557 221.502 124.964 223.033 125.779 224.292C126.593 225.551 127.815 226.18 129.445 226.18Z" fill="black"/>
<path d="M143.781 210.036H148.224V213.146H148.483C148.804 212.282 149.385 211.554 150.224 210.961C151.088 210.344 152.186 210.036 153.519 210.036C153.988 210.036 154.47 210.097 154.964 210.221L154.778 214.405C154.408 214.282 154.087 214.207 153.816 214.183C153.544 214.133 153.198 214.109 152.779 214.109C151.273 214.109 150.137 214.516 149.372 215.331C148.607 216.145 148.224 217.503 148.224 219.404V229.587H143.781V210.036Z" fill="black"/>
<path d="M166.149 229.883C164.075 229.883 162.335 229.402 160.928 228.439C159.545 227.476 158.509 226.229 157.817 224.699C157.151 223.144 156.818 221.477 156.818 219.7C156.818 217.947 157.151 216.306 157.817 214.775C158.509 213.22 159.545 211.961 160.928 210.998C162.335 210.036 164.075 209.554 166.149 209.554C168.741 209.554 170.777 210.295 172.259 211.776C173.764 213.257 174.665 215.108 174.962 217.33H170.592C170.419 216.121 169.963 215.146 169.222 214.405C168.482 213.64 167.469 213.257 166.186 213.257C164.532 213.257 163.298 213.887 162.483 215.146C161.668 216.38 161.261 217.898 161.261 219.7C161.261 221.551 161.668 223.107 162.483 224.366C163.298 225.6 164.532 226.217 166.186 226.217C167.445 226.217 168.445 225.834 169.185 225.069C169.95 224.304 170.419 223.317 170.592 222.107H174.962C174.665 224.329 173.764 226.18 172.259 227.661C170.777 229.142 168.741 229.883 166.149 229.883Z" fill="black"/>
<path d="M178.784 202.037H183.301V213.22H183.56C184.029 212.208 184.77 211.344 185.782 210.628C186.819 209.912 188.078 209.554 189.559 209.554C192.077 209.554 193.891 210.369 195.002 211.998C196.113 213.627 196.669 215.516 196.669 217.663V229.587H192.188V218.367C192.188 216.762 191.793 215.528 191.003 214.664C190.238 213.775 189.152 213.331 187.745 213.331C186.412 213.331 185.338 213.8 184.523 214.738C183.709 215.652 183.301 216.861 183.301 218.367V229.587H178.784V202.037Z" fill="black"/>
<path d="M659.952 97H351.057C343.34 97 337.083 103.928 337.083 112.474V153.195C337.083 161.741 343.34 168.669 351.057 168.669H659.952C667.669 168.669 673.925 161.741 673.925 153.195V112.474C673.925 103.928 667.669 97 659.952 97Z" stroke="black" stroke-width="1.04893"/>
<path d="M393.98 145.149C390.746 145.149 388.179 144.174 386.278 142.224C384.377 140.249 383.427 137.312 383.427 133.411V118.859H387.907V133.152C387.907 135.226 388.327 137.028 389.166 138.558C390.005 140.089 391.61 140.854 393.98 140.854C396.276 140.854 397.856 140.089 398.72 138.558C399.584 137.028 400.016 135.226 400.016 133.152V118.859H404.422V133.411C404.422 137.312 403.472 140.249 401.571 142.224C399.695 144.174 397.164 145.149 393.98 145.149Z" fill="black"/>
<path d="M409.291 118.859H413.809V144.779H409.291V118.859Z" fill="black"/>
<path d="M443.241 144.779H439.477L436.922 141.894H436.757L436.592 142.169C436.153 142.847 435.503 143.488 434.642 144.092C433.781 144.697 432.7 144.999 431.4 144.999C430.393 144.999 429.486 144.797 428.68 144.394C427.874 143.991 427.243 143.414 426.785 142.664C426.327 141.894 426.098 140.997 426.098 139.971C426.098 138.707 426.427 137.654 427.087 136.812C427.764 135.969 428.644 135.347 429.724 134.944L430.521 134.641V134.532L430.384 134.367C429.834 133.762 429.367 133.13 428.982 132.471C428.598 131.812 428.406 131.006 428.406 130.053C428.406 129.01 428.662 128.121 429.175 127.389C429.706 126.656 430.393 126.107 431.235 125.74C432.096 125.374 433.021 125.191 434.01 125.191C435.036 125.191 435.988 125.392 436.867 125.795C437.765 126.18 438.488 126.766 439.038 127.553C439.587 128.341 439.862 129.303 439.862 130.438V131.07H436.455V130.63C436.455 129.806 436.217 129.165 435.741 128.707C435.265 128.249 434.688 128.02 434.01 128.02C433.369 128.02 432.82 128.213 432.362 128.597C431.904 128.982 431.675 129.531 431.675 130.246C431.675 130.85 431.812 131.381 432.087 131.839C432.38 132.297 432.893 132.938 433.625 133.762L436.538 137.087L438.131 134.257H441.4L438.406 139.229L443.241 144.779ZM435.136 139.834L432.197 136.455L431.318 136.757C430.677 136.995 430.173 137.361 429.807 137.856C429.459 138.332 429.285 138.9 429.285 139.559C429.285 140.328 429.523 140.951 429.999 141.427C430.493 141.903 431.135 142.142 431.922 142.142C432.728 142.142 433.36 141.94 433.818 141.537C434.276 141.116 434.669 140.631 434.999 140.081L435.136 139.834Z" fill="black"/>
<path d="M464.153 145.149C460.919 145.149 458.352 144.174 456.451 142.224C454.55 140.249 453.6 137.312 453.6 133.411V118.859H458.08V133.152C458.08 135.226 458.5 137.028 459.339 138.558C460.179 140.089 461.783 140.854 464.153 140.854C466.449 140.854 468.029 140.089 468.893 138.558C469.757 137.028 470.189 135.226 470.189 133.152V118.859H474.595V133.411C474.595 137.312 473.645 140.249 471.744 142.224C469.868 144.174 467.337 145.149 464.153 145.149Z" fill="black"/>
<path d="M486.429 131.819L477.95 118.859H482.874L489.095 128.671H489.317L495.538 118.859H500.5L491.983 131.819L500.5 144.779H495.538L489.317 134.966H489.095L482.874 144.779H477.913L486.429 131.819Z" fill="black"/>
<path d="M512.402 118.822H522.288C524.584 118.822 526.608 119.34 528.361 120.377C530.114 121.414 531.471 122.907 532.434 124.858C533.397 126.808 533.878 129.116 533.878 131.782C533.878 134.473 533.385 136.793 532.397 138.743C531.434 140.693 530.077 142.187 528.324 143.224C526.571 144.236 524.535 144.742 522.214 144.742H512.402V118.822ZM521.437 140.706C523.782 140.706 525.646 139.99 527.028 138.558C528.41 137.102 529.102 134.831 529.102 131.745C529.102 128.684 528.41 126.437 527.028 125.006C525.646 123.549 523.782 122.821 521.437 122.821H516.771V140.706H521.437Z" fill="black"/>
<path d="M546.196 145.075C544.171 145.075 542.456 144.594 541.049 143.631C539.666 142.668 538.629 141.422 537.938 139.891C537.272 138.336 536.938 136.682 536.938 134.929C536.938 133.152 537.272 131.498 537.938 129.967C538.629 128.412 539.666 127.153 541.049 126.191C542.456 125.228 544.184 124.746 546.233 124.746C548.948 124.746 551.096 125.623 552.676 127.375C554.28 129.128 555.082 131.658 555.082 134.966V136.188H541.308V136.485C541.308 137.349 541.505 138.163 541.9 138.928C542.32 139.694 542.888 140.311 543.604 140.78C544.344 141.224 545.183 141.446 546.122 141.446C547.183 141.446 548.084 141.2 548.825 140.706C549.565 140.187 550.121 139.496 550.491 138.632H554.897C554.379 140.508 553.379 142.051 551.898 143.261C550.417 144.47 548.516 145.075 546.196 145.075ZM550.75 133.226C550.701 131.449 550.256 130.153 549.417 129.338C548.602 128.499 547.529 128.079 546.196 128.079C544.764 128.079 543.616 128.548 542.752 129.486C541.913 130.399 541.468 131.646 541.419 133.226H550.75Z" fill="black"/>
<path d="M566.122 145.075C564.492 145.075 563.085 144.767 561.9 144.149C560.715 143.532 559.814 142.73 559.197 141.743C558.58 140.73 558.272 139.669 558.272 138.558V138.336H562.678V138.558C562.678 139.323 562.987 140.015 563.604 140.632C564.221 141.249 565.097 141.557 566.233 141.557C567.171 141.557 567.936 141.335 568.529 140.891C569.121 140.447 569.417 139.829 569.417 139.04C569.417 138.348 569.158 137.805 568.64 137.41C568.146 137.015 567.529 136.768 566.788 136.67L564.455 136.225C562.95 135.978 561.617 135.423 560.456 134.559C559.321 133.67 558.753 132.35 558.753 130.597C558.753 128.77 559.419 127.338 560.753 126.302C562.086 125.265 563.801 124.746 565.9 124.746C567.43 124.746 568.751 125.03 569.862 125.598C570.997 126.166 571.849 126.906 572.417 127.82C573.009 128.733 573.305 129.721 573.305 130.782V130.93H568.899V130.819C568.899 130.153 568.64 129.523 568.121 128.931C567.628 128.338 566.838 128.042 565.751 128.042C564.838 128.042 564.11 128.276 563.567 128.746C563.024 129.19 562.752 129.782 562.752 130.523C562.752 131.165 562.999 131.683 563.493 132.078C564.011 132.473 564.653 132.745 565.418 132.893L567.973 133.337C569.578 133.658 570.923 134.263 572.009 135.151C573.095 136.04 573.639 137.312 573.639 138.965C573.639 140.175 573.305 141.249 572.639 142.187C571.997 143.1 571.096 143.816 569.936 144.335C568.8 144.828 567.529 145.075 566.122 145.075Z" fill="black"/>
<path d="M577.864 125.228H582.345V144.779H577.864V125.228ZM580.049 121.784C579.308 121.784 578.691 121.537 578.197 121.044C577.704 120.525 577.457 119.908 577.457 119.192C577.457 118.452 577.704 117.834 578.197 117.341C578.691 116.847 579.308 116.6 580.049 116.6C580.789 116.6 581.407 116.859 581.9 117.378C582.394 117.871 582.641 118.476 582.641 119.192C582.641 119.908 582.394 120.525 581.9 121.044C581.407 121.537 580.789 121.784 580.049 121.784Z" fill="black"/>
<path d="M596.728 152.851C595.395 152.851 594.247 152.666 593.284 152.296V148.667C593.531 148.741 593.938 148.815 594.506 148.889C595.074 148.988 595.617 149.037 596.136 149.037C597.938 149.037 599.234 148.519 600.024 147.482C600.813 146.47 601.208 145.186 601.208 143.631V140.743H600.912C600.443 141.73 599.69 142.619 598.653 143.409C597.617 144.174 596.296 144.557 594.691 144.557C593.087 144.557 591.692 144.149 590.507 143.335C589.322 142.496 588.409 141.335 587.767 139.854C587.125 138.348 586.804 136.62 586.804 134.67C586.804 132.695 587.125 130.955 587.767 129.449C588.409 127.943 589.322 126.783 590.507 125.968C591.692 125.129 593.087 124.709 594.691 124.709C596.345 124.709 597.691 125.129 598.728 125.968C599.789 126.783 600.517 127.684 600.912 128.671H601.208V125.265H605.689V143.631C605.689 144.939 605.442 146.285 604.948 147.667C604.479 149.05 603.578 150.259 602.245 151.296C600.912 152.333 599.073 152.851 596.728 152.851ZM596.321 140.854C597.901 140.854 599.098 140.237 599.912 139.002C600.752 137.744 601.171 136.275 601.171 134.596C601.171 132.942 600.752 131.498 599.912 130.264C599.098 129.029 597.901 128.412 596.321 128.412C594.716 128.412 593.494 129.029 592.655 130.264C591.84 131.473 591.433 132.917 591.433 134.596C591.433 136.299 591.84 137.768 592.655 139.002C593.469 140.237 594.691 140.854 596.321 140.854Z" fill="black"/>
<path d="M610.651 125.228H615.168V128.412H615.427C615.897 127.4 616.637 126.536 617.649 125.82C618.686 125.104 619.945 124.746 621.426 124.746C623.944 124.746 625.758 125.561 626.869 127.19C627.98 128.82 628.536 130.708 628.536 132.856V144.779H624.055V133.559C624.055 131.955 623.66 130.72 622.87 129.856C622.105 128.968 621.043 128.523 619.686 128.523C618.229 128.523 617.106 128.992 616.316 129.93C615.551 130.869 615.168 132.078 615.168 133.559V144.779H610.651V125.228Z" fill="black"/>
<rect x="599.199" y="294.614" width="247.401" height="70.6185" rx="11.475" stroke="black" stroke-width="1.05"/>
<path d="M627.785 318.336H632.266L639.264 339.554H639.486L646.448 318.336H650.965L642.301 344.293H636.413L627.785 318.336Z" fill="black"/>
<path d="M660.05 344.552C657.581 344.552 655.656 343.614 654.273 341.738C652.891 339.862 652.199 337.418 652.199 334.407C652.199 331.346 652.903 328.889 654.31 327.038C655.717 325.162 657.667 324.224 660.161 324.224C661.864 324.224 663.197 324.619 664.16 325.409C665.147 326.174 665.851 327.026 666.27 327.964H666.567V324.705H671.084V344.256H666.567V340.664H666.27C665.801 341.677 665.073 342.578 664.086 343.368C663.098 344.158 661.753 344.552 660.05 344.552ZM661.642 340.85C663.246 340.85 664.456 340.22 665.271 338.961C666.11 337.702 666.53 336.172 666.53 334.37C666.53 332.568 666.11 331.049 665.271 329.815C664.456 328.556 663.246 327.927 661.642 327.927C659.988 327.927 658.754 328.556 657.939 329.815C657.149 331.049 656.754 332.568 656.754 334.37C656.754 336.172 657.161 337.702 657.976 338.961C658.791 340.22 660.013 340.85 661.642 340.85Z" fill="black"/>
<path d="M682.532 344.404C680.829 344.404 679.57 344.145 678.755 343.627C677.941 343.084 677.422 342.417 677.2 341.627C677.002 340.813 676.904 339.776 676.904 338.517V316.485H681.384V337.665C681.384 338.579 681.421 339.257 681.495 339.702C681.594 340.146 681.841 340.504 682.236 340.776C682.631 341.022 683.26 341.146 684.124 341.146C684.445 341.146 684.828 341.121 685.272 341.072V344.182C684.482 344.33 683.569 344.404 682.532 344.404Z" fill="black"/>
<path d="M690.198 324.705H694.679V344.256H690.198V324.705ZM692.383 321.261C691.642 321.261 691.025 321.015 690.531 320.521C690.038 320.002 689.791 319.385 689.791 318.669C689.791 317.929 690.038 317.312 690.531 316.818C691.025 316.324 691.642 316.077 692.383 316.077C693.123 316.077 693.741 316.337 694.234 316.855C694.728 317.349 694.975 317.954 694.975 318.669C694.975 319.385 694.728 320.002 694.234 320.521C693.741 321.015 693.123 321.261 692.383 321.261Z" fill="black"/>
<path d="M707.692 344.552C706.038 344.552 704.619 344.12 703.434 343.256C702.249 342.392 701.348 341.195 700.731 339.665C700.113 338.134 699.805 336.381 699.805 334.407C699.805 331.346 700.496 328.889 701.878 327.038C703.286 325.162 705.248 324.224 707.766 324.224C709.469 324.224 710.815 324.619 711.802 325.409C712.79 326.174 713.493 327.026 713.913 327.964H714.209V316.448H718.727V344.256H714.209V340.664H713.913C713.444 341.652 712.703 342.553 711.691 343.368C710.704 344.158 709.371 344.552 707.692 344.552ZM709.284 340.924C710.889 340.924 712.098 340.294 712.913 339.035C713.752 337.752 714.172 336.209 714.172 334.407C714.172 332.605 713.752 331.086 712.913 329.852C712.098 328.593 710.889 327.964 709.284 327.964C707.655 327.964 706.433 328.593 705.618 329.852C704.804 331.086 704.396 332.605 704.396 334.407C704.396 336.233 704.804 337.776 705.618 339.035C706.433 340.294 707.655 340.924 709.284 340.924Z" fill="black"/>
<path d="M731.103 344.552C728.634 344.552 726.709 343.614 725.326 341.738C723.944 339.862 723.253 337.418 723.253 334.407C723.253 331.346 723.956 328.889 725.363 327.038C726.77 325.162 728.721 324.224 731.214 324.224C732.917 324.224 734.25 324.619 735.213 325.409C736.2 326.174 736.904 327.026 737.324 327.964H737.62V324.705H742.137V344.256H737.62V340.664H737.324C736.855 341.677 736.126 342.578 735.139 343.368C734.152 344.158 732.806 344.552 731.103 344.552ZM732.695 340.85C734.3 340.85 735.509 340.22 736.324 338.961C737.163 337.702 737.583 336.172 737.583 334.37C737.583 332.568 737.163 331.049 736.324 329.815C735.509 328.556 734.3 327.927 732.695 327.927C731.041 327.927 729.807 328.556 728.992 329.815C728.202 331.049 727.807 332.568 727.807 334.37C727.807 336.172 728.215 337.702 729.029 338.961C729.844 340.22 731.066 340.85 732.695 340.85Z" fill="black"/>
<path d="M754.58 328.223V337.813C754.58 338.702 754.617 339.356 754.691 339.776C754.79 340.195 755.037 340.529 755.432 340.776C755.827 341.022 756.456 341.146 757.32 341.146C757.764 341.146 758.332 341.084 759.023 340.961V344.108C758.875 344.158 758.456 344.219 757.764 344.293C757.073 344.367 756.394 344.404 755.728 344.404C754.024 344.404 752.765 344.158 751.951 343.664C751.136 343.17 750.618 342.541 750.396 341.775C750.198 341.01 750.099 340.01 750.099 338.776V328.223H746.693V324.705H750.099V318.336H754.58V324.705H759.023V328.223H754.58Z" fill="black"/>
<path d="M764.434 324.705H768.914V344.256H764.434V324.705ZM766.618 321.261C765.878 321.261 765.261 321.015 764.767 320.521C764.273 320.002 764.026 319.385 764.026 318.669C764.026 317.929 764.273 317.312 764.767 316.818C765.261 316.324 765.878 316.077 766.618 316.077C767.359 316.077 767.976 316.337 768.47 316.855C768.963 317.349 769.21 317.954 769.21 318.669C769.21 319.385 768.963 320.002 768.47 320.521C767.976 321.015 767.359 321.261 766.618 321.261Z" fill="black"/>
<path d="M783.409 344.552C781.384 344.552 779.669 344.083 778.262 343.145C776.879 342.207 775.842 340.973 775.151 339.443C774.46 337.912 774.114 336.233 774.114 334.407C774.114 332.605 774.46 330.938 775.151 329.408C775.842 327.853 776.879 326.606 778.262 325.668C779.669 324.73 781.384 324.261 783.409 324.261C785.433 324.261 787.136 324.73 788.518 325.668C789.926 326.606 790.962 327.84 791.629 329.371C792.32 330.901 792.666 332.568 792.666 334.37C792.666 336.172 792.32 337.85 791.629 339.405C790.962 340.961 789.926 342.207 788.518 343.145C787.136 344.083 785.433 344.552 783.409 344.552ZM783.409 340.85C784.964 340.85 786.161 340.232 787 338.998C787.84 337.764 788.259 336.221 788.259 334.37C788.259 332.518 787.84 330.988 787 329.778C786.161 328.544 784.964 327.927 783.409 327.927C781.829 327.927 780.619 328.544 779.78 329.778C778.965 330.988 778.558 332.518 778.558 334.37C778.558 336.221 778.977 337.764 779.817 338.998C780.656 340.232 781.853 340.85 783.409 340.85Z" fill="black"/>
<path d="M797.4 324.705H801.917V327.89H802.176C802.645 326.877 803.386 326.013 804.398 325.298C805.435 324.582 806.694 324.224 808.175 324.224C810.693 324.224 812.507 325.038 813.618 326.668C814.729 328.297 815.284 330.185 815.284 332.333V344.256H810.804V333.037C810.804 331.432 810.409 330.198 809.619 329.334C808.854 328.445 807.792 328.001 806.435 328.001C804.978 328.001 803.855 328.47 803.065 329.408C802.3 330.346 801.917 331.555 801.917 333.037V344.256H797.4V324.705Z" fill="black"/>
</svg>
