<svg width="48" height="48" viewBox="0 0 48 48" fill="none" xmlns="http://www.w3.org/2000/svg">
<g clip-path="url(#clip0_446_18)">
<path d="M19.8727 28.1277C23.318 31.5731 28.8949 31.5737 32.3407 28.1277C35.786 24.6825 35.7865 19.1056 32.3407 15.6598C28.8953 12.2145 23.3185 12.2141 19.8727 15.6598C16.4275 19.1051 16.4269 24.682 19.8727 28.1277ZM31.3463 16.6541C34.242 19.5497 34.2427 24.2372 31.3463 27.1334C28.4506 30.0292 23.7632 30.0297 20.867 27.1334C17.9713 24.2379 17.9707 19.5503 20.867 16.6541C23.7628 13.7583 28.4501 13.7579 31.3463 16.6541Z" fill="black"/>
<path d="M22.7665 25.4639C23.0412 25.7385 23.4863 25.7385 23.7608 25.4639C24.0353 25.1894 24.0353 24.7442 23.7608 24.4696L23.1924 23.9012C22.9178 23.6267 22.4727 23.6267 22.1981 23.9012C21.9236 24.1757 21.9236 24.6209 22.1981 24.8955L22.7665 25.4639Z" fill="black"/>
<path d="M28.6826 19.5481C28.957 19.8226 29.4023 19.8228 29.6769 19.5481C29.9515 19.2736 29.9515 18.8284 29.6769 18.5538L29.1085 17.9854C28.834 17.7109 28.3887 17.7109 28.1141 17.9854C27.8396 18.26 27.8396 18.7051 28.1141 18.9797L28.6826 19.5481Z" fill="black"/>
<path d="M25.3766 23.473C26.0007 23.5161 26.6138 23.2874 27.057 22.8443C27.4996 22.4018 27.7287 21.7893 27.6858 21.1639C27.6592 20.7765 27.3238 20.4842 26.9363 20.5106C26.5489 20.5372 26.2564 20.8727 26.283 21.2601C26.2981 21.4798 26.2177 21.6948 26.0627 21.8499C25.9076 22.0049 25.6928 22.0854 25.4729 22.0701C25.0855 22.0436 24.7499 22.336 24.7234 22.7233C24.6967 23.1109 24.9892 23.4465 25.3766 23.473Z" fill="black"/>
<path d="M4.76115 47.3439C7.17915 48.0812 9.66445 47.8638 12.1406 47.3439L14.0955 46.4312L13.5468 45.6093C12.1874 45.8948 7.3614 46.6666 5.17121 45.9989C3.65012 45.5351 2.46522 44.3502 2.00144 42.8291C0.531905 38.0095 1.83006 32.8046 5.38918 29.2454C5.88737 28.7471 6.42531 28.2865 6.99362 27.8713L10.2196 31.0973C9.62124 31.47 9.06455 31.91 8.55924 32.4153C6.78718 34.1874 5.88081 36.4859 5.85118 38.8283C5.82821 40.6574 7.30599 42.1493 9.12952 42.1493C9.14368 42.1493 9.15784 42.1492 9.17199 42.149C11.518 42.1193 13.8153 41.2105 15.585 39.441C16.0905 38.9356 16.5304 38.3788 16.903 37.7805L20.129 41.0065C19.7139 41.5746 19.2533 42.1126 18.7549 42.6109C17.513 43.8528 14.6643 45.3747 13.5468 45.6093L14.0955 46.4312L12.1406 47.3439C14.0955 46.9334 18.3792 44.9752 19.7492 43.6051C20.2472 43.1071 20.7102 42.5728 21.1334 42.0108L21.559 42.4364C22.7751 43.6525 24.754 43.6526 25.9703 42.4364C26.9273 41.4793 27.1306 40.0501 26.5814 38.8917C27.2269 38.6629 27.867 38.4095 28.5012 38.134L32.8772 42.5101C33.8042 43.4371 35.0219 43.9006 36.2397 43.9006C39.0616 43.9006 41.2647 41.462 40.9688 38.65L40.0283 29.7128C41.8934 27.6303 43.4712 25.3656 44.7311 22.9597C44.8452 22.6292 49.2394 15.1499 47.6564 6.60548C47.0652 3.41273 44.5755 0.932759 41.3948 0.343821C38.3411 -0.22196 34.9497 -0.0786166 31.5874 0.758384L30.7968 1.87495L30.5624 2.43745C33.6289 1.4136 38.2811 1.19704 41.1387 1.72645C43.7708 2.21376 45.7864 4.22938 46.2738 6.86151C47.118 11.4179 46.2816 16.5639 43.9182 21.4486L26.5517 4.08257C27.4766 3.63567 29.6128 2.77757 30.5624 2.43745L30.7968 1.87495L31.5874 0.758384C27.8124 2.11054 21.4954 5.09892 18.2873 7.97217L9.35021 7.03167C7.91668 6.88064 6.50959 7.37892 5.49006 8.39835C4.59193 9.29648 4.09731 10.4907 4.09731 11.7608C4.09731 13.0309 4.59193 14.2251 5.49006 15.1232L9.86612 19.4993C9.59077 20.1328 9.33765 20.7723 9.10899 21.4172C7.96702 20.8734 6.53453 21.0594 5.56374 22.0301C4.34462 23.2493 4.34453 25.2223 5.56374 26.4414L5.98918 26.8668C5.42706 27.2903 4.89268 27.7532 4.39487 28.251C0.467593 32.1785 -0.964906 37.9216 0.656499 43.2392C1.25697 45.2088 2.79147 46.7433 4.76115 47.3439ZM15.8786 36.7562C15.5303 37.3719 15.0985 37.939 14.5906 38.4468C13.0968 39.9406 11.1527 40.718 9.15418 40.7431C8.11552 40.7593 7.24374 39.908 7.25715 38.8461C7.28227 36.8488 8.05871 34.9044 9.55346 33.4096C10.0613 32.9018 10.6282 32.47 11.2441 32.1217C11.7415 32.6192 15.388 36.2657 15.8786 36.7562ZM38.7561 31.0603L39.5703 38.7975C39.8995 41.9252 36.0954 43.7401 33.8714 41.5161L29.8593 37.5039C33.269 35.7991 36.1401 33.6873 38.7561 31.0603ZM25.6655 37.7206L10.2798 22.335C12.767 14.9159 18.4939 8.43604 25.2385 4.75785L43.2425 22.7619C39.5593 29.5155 33.0738 35.2366 25.6655 37.7206ZM10.4965 18.141L6.48437 14.129C5.85184 13.4965 5.50346 12.6554 5.50346 11.7609C5.50346 10.8663 5.85184 10.0253 6.48446 9.39267C7.11802 8.75911 7.96393 8.41148 8.84799 8.41148C8.96574 8.41148 9.08434 8.41757 9.20302 8.43014L16.9401 9.24436C14.1894 11.9776 12.0459 15.0064 10.5003 18.1334C10.499 18.1359 10.4977 18.1384 10.4965 18.141ZM6.55806 23.0244C7.22293 22.3596 8.30762 22.3541 8.97821 23.0221C8.97896 23.0229 8.97952 23.0237 8.98027 23.0245L24.9759 39.0201C24.9768 39.0211 24.9779 39.0218 24.9787 39.0226C25.6437 39.6909 25.6428 40.7753 24.9759 41.4422C24.3079 42.1102 23.2211 42.1102 22.5531 41.4422C20.579 39.4681 8.22849 27.1176 6.55806 25.4472C5.8884 24.7776 5.88849 23.694 6.55806 23.0244Z" fill="black"/>
</g>
<defs>
<clipPath id="clip0_446_18">
<rect width="48" height="48" fill="white"/>
</clipPath>
</defs>
</svg>
