<svg id="Capa_1" enable-background="new 0 0 512 512" height="512" viewBox="0 0 512 512" width="512" xmlns="http://www.w3.org/2000/svg"><g><path d="m394.41 275.69c-42.627 0-77.306 34.679-77.306 77.306s34.679 77.306 77.306 77.306c42.626 0 77.306-34.679 77.306-77.306s-34.679-77.306-77.306-77.306zm0 139.612c-34.356 0-62.306-27.95-62.306-62.306s27.95-62.306 62.306-62.306c34.355 0 62.306 27.95 62.306 62.306s-27.95 62.306-62.306 62.306z"/><path d="m409.101 316.85-26.034 13.719c-10.48 5.51-15.846 17.818-12.223 29.51 1.976 6.377 6.316 11.604 12.223 14.716 12.29 6.476 27.358 1.702 33.766-10.46l13.744-26.082c7.199-13.899-7.833-28.594-21.476-21.403zm8.181 14.458-13.72 26.035c-2.576 4.889-8.615 6.758-13.502 4.183-2.362-1.245-4.098-3.335-4.888-5.886-1.456-4.7.724-9.613 4.879-11.796.003-.002.006-.003.009-.005l26.034-13.719c.754-.398 1.588.415 1.188 1.188z"/><path d="m135.339 137.689c-4.142 0-7.5 3.357-7.5 7.5v13.483c0 4.142 3.358 7.5 7.5 7.5s7.5-3.358 7.5-7.5v-13.483c0-4.142-3.358-7.5-7.5-7.5z"/><path d="m275.674 137.689c-4.142 0-7.5 3.357-7.5 7.5v13.483c0 4.142 3.358 7.5 7.5 7.5s7.5-3.358 7.5-7.5v-13.483c0-4.142-3.358-7.5-7.5-7.5z"/><path d="m228.933 152.617c-3.123-2.721-7.86-2.396-10.582.727-3.243 3.721-7.924 5.855-12.845 5.855s-9.603-2.134-12.845-5.855c-2.722-3.123-7.459-3.448-10.582-.727s-3.448 7.459-.727 10.582c6.092 6.991 14.896 11 24.154 11 9.257 0 18.061-4.009 24.153-11 2.722-3.123 2.397-7.861-.726-10.582z"/><path d="m478.243 281.248c-3.321 2.476-4.006 7.175-1.53 10.496 13.272 17.8 20.287 38.982 20.287 61.252 0 56.568-46.021 102.59-102.59 102.59-57.025 0-102.59-46.453-102.59-102.59 0-56.499 46.216-103.224 103.795-102.565 22.766.26 44.053 7.769 61.804 21.604 3.268 2.547 7.979 1.963 10.526-1.305 2.546-3.267 1.962-7.979-1.305-10.525-12.823-9.995-27.23-17.076-42.583-21.048v-23.158c11.294-3.496 19.521-14.036 19.521-26.463 0-15.271-12.424-27.695-27.695-27.695h-4.872v-12.902c0-37.888-30.055-68.874-67.574-70.403v-17.29c0-21.351-17.37-38.72-38.721-38.72s-38.72 17.37-38.72 38.72v17.216h-120.981v-17.216c0-21.351-17.37-38.72-38.721-38.72s-38.721 17.37-38.721 38.72v17.29c-37.519 1.534-67.573 32.518-67.573 70.402v186.226c0 4.142 3.358 7.5 7.5 7.5s7.5-3.358 7.5-7.5v-127.434h337.082c3.342 3.826 7.712 6.731 12.68 8.269v23.18c-18.075 4.695-35.507 13.986-50.132 27.516-5.573-2.466-11.621-3.756-17.776-3.756h-182.69c-24.237 0-43.956 19.719-43.956 43.956v68.417c0 24.237 19.718 43.956 43.956 43.956h182.69c.132 0 .271-.011.404-.012 16.977 24.838 42.327 41.717 70.263 48.24-8.149 4.559-17.366 6.979-26.985 6.979h-270.05c-30.595 0-55.486-24.887-55.486-55.477v-53.834c0-4.142-3.358-7.5-7.5-7.5s-7.5 3.358-7.5 7.5v53.834c0 38.861 31.62 70.477 70.486 70.477h270.05c18.083 0 35.045-6.732 48.147-19.03 1.898.091 3.807.141 5.727.141 64.839 0 117.59-52.75 117.59-117.59 0-25.526-8.044-49.808-23.262-70.219-2.475-3.32-7.175-4.006-10.495-1.529zm-307.835 75.909v-32.109h70.2v32.109zm70.2 15v32.11h-70.2v-32.11zm-155.4-47.109h70.201v32.109h-70.201zm85.2-15v-32.109h70.2v32.109zm85.2 15h24.569c-2.302 9.467-3.357 18.878-3.357 27.948 0 2.518.072 3.876.081 4.161h-21.293zm138.802-89.642c-4.847 0-10.101.342-14.648.906v-19.081h29.297v19.068c-4.207-.518-9.886-.893-14.649-.893zm34.17-45.87c0 6.095-4.28 12.131-12.824 12.695-10.254-.006-41.56.023-43.245-.03 0 0 0 0-.001 0-6.908-.228-12.27-5.942-12.27-12.665 0-6.973 5.667-12.695 12.695-12.695h42.949c7 0 12.696 5.695 12.696 12.695zm-147.582-128.29c0-13.08 10.641-23.72 23.72-23.72 13.08 0 23.72 10.641 23.72 23.72v30.928c0 13.102-10.674 23.721-23.72 23.721-13.08 0-23.72-10.641-23.72-23.721 0-10.762 0-24.648 0-30.928zm-174.704-23.721c13.08 0 23.721 10.641 23.721 23.72v30.928c0 13.062-10.624 23.721-23.721 23.721-13.025 0-23.72-10.587-23.72-23.721 0-6.405 0-21.539 0-30.928 0-13.079 10.641-23.72 23.72-23.72zm-91.294 155.205v-43.792c0-29.621 23.34-53.895 52.598-55.402.738 20.964 18.051 37.358 38.697 37.358 20.81 0 38.028-16.596 38.7-37.432h121.024c.669 20.732 17.784 37.432 38.7 37.432 20.822 0 37.95-16.539 38.697-37.358 29.257 1.502 52.598 25.778 52.598 55.403v12.902h-23.077c-15.301 0-27.695 12.45-27.695 27.696v.001c0 .98.065 2.172.186 3.193h-330.428zm288.293 85.931c-7.799 9.527-13.96 20.111-18.382 31.387h-29.303v-32.109h41.245c2.181-.001 4.34.244 6.44.722zm-189.13-.723h41.245v32.109h-70.2v-3.154c0-15.965 12.989-28.955 28.955-28.955zm-28.955 97.374v-3.154h70.201v32.11h-41.245c-15.967-.001-28.956-12.991-28.956-28.956zm170.4 28.955v-32.11h22.771c1.779 10.832 5.166 21.764 10.183 32.11z"/></g></svg>