<svg width="48" height="48" viewBox="0 0 48 48" fill="none" xmlns="http://www.w3.org/2000/svg">
<g clip-path="url(#clip0_446_33)">
<path d="M32.4611 19.5213C32.1683 19.2661 31.7241 19.2965 31.469 19.5893C31.1815 19.9192 30.7664 20.1085 30.3301 20.1085C29.8939 20.1085 29.4788 19.9192 29.1913 19.5893C28.9361 19.2965 28.4919 19.2662 28.1992 19.5213C27.9064 19.7764 27.8759 20.2205 28.1311 20.5133C28.6858 21.1498 29.4873 21.5148 30.3301 21.5148C31.1729 21.5148 31.9744 21.1497 32.5291 20.5133C32.7843 20.2205 32.7539 19.7764 32.4611 19.5213Z" fill="black"/>
<path d="M19.8009 19.5213C19.5081 19.2661 19.0639 19.2965 18.8088 19.5893C18.5213 19.9192 18.1062 20.1085 17.67 20.1085C17.2337 20.1085 16.8186 19.9192 16.5311 19.5893C16.2759 19.2965 15.8317 19.2662 15.539 19.5213C15.2462 19.7764 15.2158 20.2205 15.471 20.5133C16.0257 21.1498 16.8272 21.5148 17.67 21.5148C18.5128 21.5148 19.3142 21.1497 19.869 20.5133C20.1241 20.2205 20.0937 19.7764 19.8009 19.5213Z" fill="black"/>
<path d="M26.0745 21.7391C25.7817 21.484 25.3376 21.5145 25.0824 21.8072C24.809 22.1209 24.4145 22.3007 23.9999 22.3007C23.5852 22.3007 23.1907 22.1209 22.9173 21.8072C22.6621 21.5145 22.2181 21.484 21.9253 21.7391C21.6325 21.9943 21.602 22.4384 21.8571 22.7311C22.3976 23.3513 23.1786 23.707 23.9999 23.707C24.8211 23.707 25.6021 23.3513 26.1426 22.7311C26.3977 22.4384 26.3672 21.9943 26.0745 21.7391Z" fill="black"/>
<path d="M6.26864 25.8689C5.54902 26.0474 5.05092 26.6693 5.05092 27.4031V27.4813C5.05092 28.1053 5.41121 28.6484 5.96133 28.9071C5.72546 30.3763 5.33321 31.4832 4.81599 32.1274C3.47958 33.7917 3.78605 36.2329 5.49942 37.5111C6.78108 38.4672 8.15217 39.1764 9.58533 39.628C8.52089 41.8912 7.98267 44.4587 7.98267 47.2969C7.98267 47.6852 8.29749 48 8.6858 48H39.3142C39.7025 48 40.0173 47.6852 40.0173 47.2969C40.0173 46.046 39.909 44.8319 39.6973 43.6807C39.8303 43.5011 39.9267 43.2919 39.974 43.0632C40.1594 42.1664 40.7789 41.5438 41.6736 41.3549C42.4246 41.1964 42.9492 40.5594 42.9492 39.806V39.7278C42.9492 38.9743 42.4246 38.3374 41.6737 38.1787C41.6373 38.1711 41.6022 38.1615 41.5667 38.1525C41.8851 37.9513 42.1972 37.7375 42.5007 37.5111C44.2116 36.2347 44.5224 33.7942 43.184 32.1274C42.3461 31.0837 41.8427 28.8054 41.7865 25.8368C43.5164 24.9887 44.7106 23.2098 44.7106 21.1566C44.7106 19.8493 44.2255 18.6539 43.4271 17.7382C42.8883 13.4198 40.9842 9.50689 37.9093 6.41023C37.2295 5.72558 36.4928 5.08704 35.7171 4.50767C35.4919 3.34479 34.9963 2.3922 34.2304 1.65964C31.8308 -0.635834 27.4936 -0.0530836 25.1219 0.498542C24.388 0.66926 23.6121 0.66926 22.8782 0.498542C20.5064 -0.0530836 16.1693 -0.635834 13.7697 1.65964C12.9941 2.40148 12.4956 3.36889 12.2745 4.55192C10.9435 5.55036 8.11589 9.08295 7.07255 10.3892L8.03414 10.136L8.28736 11.0975C8.99705 10.209 11.2934 7.19145 12.15 6.45261C12.1785 7.20139 12.2936 8.28167 12.5755 8.99586C10.6912 10.9096 9.28758 13.2737 8.55436 15.9478C7.80136 15.9334 6.96933 16.1019 6.21305 16.4722C6.60933 14.5855 7.30411 12.7838 8.28736 11.0975L8.03414 10.136L7.07255 10.3892C5.74664 12.6633 4.9088 15.1331 4.57767 17.7329C3.77658 18.6492 3.28955 19.8468 3.28955 21.1566C3.28946 23.233 4.49114 25.0331 6.26864 25.8689ZM9.8258 30.4353C9.82561 30.4363 9.82524 30.4372 9.82505 30.4383C9.80649 30.5263 9.74039 30.5979 9.6412 30.5979H9.58467C9.5003 30.5979 9.42052 30.5415 9.40186 30.4483C9.1073 29.0342 8.0873 27.9647 6.61683 27.6543C6.53996 27.6381 6.45717 27.5769 6.45717 27.4812V27.4031C6.45717 27.3074 6.53996 27.2463 6.61683 27.2301C8.10061 26.9167 9.11555 25.8296 9.40308 24.4307C9.40889 24.4206 9.43955 24.2864 9.59555 24.2864H9.65208C9.74095 24.2864 9.80686 24.3599 9.82477 24.4448C10.1295 25.8906 11.1761 26.9328 12.6243 27.2323C12.7094 27.2499 12.7687 27.3283 12.7687 27.4231V27.4705C12.7687 27.5584 12.7061 27.6351 12.6197 27.6531C12.619 27.6532 12.6182 27.6534 12.6174 27.6536C11.1567 27.9589 10.1252 29.0228 9.8258 30.4353ZM6.34036 36.3839C5.26842 35.5842 5.07324 34.0531 5.91258 33.0078C6.54286 32.2228 7.00458 31.0406 7.28939 29.4854C7.6522 29.7842 7.91714 30.2125 8.02599 30.7386C8.17861 31.4772 8.84414 32.0043 9.58467 32.0043H9.6412C10.4068 32.0043 11.0437 31.4743 11.2011 30.7288C11.2468 30.5126 11.3189 30.3114 11.4143 30.1288C12.3976 31.3739 13.5727 32.4893 14.9332 33.4249C12.9778 34.7112 11.3918 36.4329 10.2537 38.3622C8.8823 37.9639 7.5682 37.2999 6.34036 36.3839ZM19.6497 33.8505C21.1591 33.6318 22.5903 34.2417 23.4897 35.3759C22.9922 35.8643 22.5583 36.4827 22.2646 37.1819L20.9549 35.8722C20.6804 35.5976 20.2351 35.5976 19.9605 35.8722C19.6859 36.1468 19.6859 36.592 19.9605 36.8666L21.8633 38.7694C21.8397 39.0109 21.8328 39.317 21.8401 39.5161C21.4707 39.6729 21.1201 39.8705 20.7935 40.1062C20.1985 39.9202 19.5963 39.5742 19.1067 39.0846C18.3701 38.348 17.9271 37.366 17.8963 36.2919C17.8542 34.8343 18.5896 34.0052 19.6497 33.8505ZM29.6878 36.9432C29.9129 38.4912 29.2668 39.9688 28.0579 40.865C27.5963 40.3591 27.0058 39.9037 26.3265 39.5881L27.6661 38.2485C27.9407 37.9739 27.9407 37.5287 27.6661 37.2541C27.3915 36.9795 26.9463 36.9795 26.6717 37.2541L24.7889 39.1369C24.2995 39.0681 23.7881 39.0618 23.2477 39.1317C23.3465 36.8647 25.2693 35.1038 27.5472 35.1932C28.7956 35.2456 29.5453 35.9641 29.6878 36.9432ZM15.2232 46.5937C15.1982 45.4845 15.6203 44.4261 16.4234 43.6229C17.361 42.6853 18.6556 42.2596 19.9897 42.4786C20.2528 42.5209 20.5172 42.4108 20.6726 42.1942C22.3552 39.8489 25.7398 39.9809 27.3275 42.1942C27.4753 42.4004 27.7325 42.5238 28.0423 42.4743C28.0426 42.4743 28.043 42.4741 28.0434 42.474C29.3523 42.2674 30.6386 42.6848 31.5766 43.6229C32.3798 44.4261 32.8018 45.4845 32.7769 46.5937C31.8215 46.5937 16.269 46.5937 15.2232 46.5937ZM16.2683 34.251C16.2792 34.257 16.6204 34.4404 16.7788 34.5201C16.5027 35.1826 16.4493 35.9519 16.5128 36.651C16.6303 37.944 17.1971 39.1639 18.1122 40.0789C18.4826 40.4493 18.9015 40.7644 19.3617 41.017C17.893 40.9997 16.4938 41.5638 15.429 42.6285C14.3565 43.7011 13.7923 45.1131 13.8185 46.5937H9.40092C9.59845 40.853 12.3415 36.5478 16.2683 34.251ZM34.1815 46.5937C34.2077 45.1131 33.6435 43.7011 32.5709 42.6285C31.796 41.8535 30.8435 41.3445 29.8154 41.1307C30.8221 39.9442 31.3123 38.3422 31.0795 36.7409V36.7407C30.9888 36.1178 30.7246 35.4937 30.2721 34.9748C30.7269 34.7828 31.2546 34.5316 31.7476 34.2605C33.3321 35.2007 34.6806 36.431 35.7734 37.9244C35.5588 38.0471 35.3275 38.1306 35.093 38.1794C35.0923 38.1795 35.0916 38.1798 35.0908 38.1799C34.3574 38.3316 33.825 38.9909 33.825 39.7477V39.7952C33.825 40.5457 34.3586 41.2015 35.0938 41.3544C35.9888 41.5407 36.6103 42.1599 36.799 43.0535C36.8825 43.449 37.1007 43.7806 37.399 44.0069C37.6669 44.2103 37.9993 44.3289 38.3589 44.3289H38.3831C38.4996 45.0597 38.5718 45.8172 38.5989 46.5937H34.1815ZM41.5429 39.8059C41.5429 39.9016 41.4601 39.9626 41.3832 39.9789C39.9379 40.284 38.8963 41.3305 38.5969 42.7783C38.5795 42.8629 38.5011 42.9209 38.4188 42.9223C38.4176 42.9223 38.4165 42.9226 38.4153 42.9226H38.3589C38.261 42.9226 38.1939 42.8524 38.175 42.7628C37.8703 41.3196 36.8255 40.2783 35.3803 39.9775C35.294 39.9596 35.2314 39.8828 35.2314 39.7943V39.7477C35.2314 39.6529 35.2907 39.5744 35.3758 39.5569C35.3851 39.5549 35.3941 39.5521 35.4034 39.5501C36.874 39.235 37.8818 38.1663 38.1753 36.7694C38.1926 36.6876 38.2576 36.611 38.348 36.611H38.4045C38.4949 36.611 38.5789 36.6681 38.597 36.7553C38.5971 36.7561 38.5974 36.7567 38.5975 36.7574C38.8879 38.1584 39.897 39.2409 41.3832 39.5547C41.4601 39.5709 41.5429 39.6321 41.5429 39.7278V39.8059ZM40.391 26.2901C40.4689 28.6592 40.8502 31.4669 42.0875 33.0079C42.9248 34.0507 42.7343 35.5823 41.6597 36.384C41.2241 36.709 40.7695 37.0065 40.3032 37.2718C40.1426 37.0297 40.0309 36.7448 39.9742 36.4712C39.9742 36.471 39.9741 36.4707 39.974 36.4705C39.8241 35.7457 39.1672 35.2047 38.4044 35.2047H38.3479C37.5942 35.2047 36.9574 35.7289 36.7992 36.4793C36.7747 36.5957 36.7421 36.7086 36.7018 36.817C35.6676 35.4711 34.4156 34.3169 33.0826 33.4366C34.1241 32.7216 35.2092 31.7598 35.9532 30.9375L35.8034 30.032L34.7813 30.0469C33.2044 31.7765 31.1968 33.1939 28.8613 34.011C27.7891 33.6245 26.0684 33.6855 24.6102 34.5239C23.563 33.1882 21.9946 32.4502 20.3956 32.4046C19.3238 32.374 18.3753 32.6106 17.5878 33.3505C15.5336 32.3479 13.791 30.8906 12.4516 29.1716C12.774 29.0335 12.9384 29.0481 13.2024 28.9357C13.7767 28.6912 14.175 28.1196 14.175 27.4704V27.423C14.175 26.6661 13.6427 26.0068 12.9092 25.8551C12.0395 25.6751 11.3952 25.0768 11.2008 24.1547C11.0941 23.6491 10.7572 23.2179 10.2792 23.0105C9.93652 22.8617 9.64945 22.8818 9.63164 22.88C9.47658 22.0344 9.38892 21.1554 9.38892 20.2227C9.38892 19.0475 9.53086 17.9082 9.77939 16.8545C9.77958 16.8538 9.77986 16.853 9.78005 16.8524C10.3798 14.3118 11.647 11.9761 13.5043 10.0595C13.6453 10.151 13.7962 10.2301 13.9562 10.2943C15.4346 10.8874 16.4104 9.98717 16.8053 9.73311C18.4928 8.64701 20.2736 8.32976 22.113 8.78351C22.6597 8.91823 22.9096 9.0373 23.1559 9.11033C23.7279 9.28039 24.3388 9.27458 24.9075 9.09139C25.0984 9.02998 25.3841 8.90408 25.9359 8.77217C27.9005 8.30192 29.796 8.7118 31.5823 9.9972C32.4582 10.6274 33.612 10.6401 34.511 10.0499C34.6101 10.1523 34.7087 10.2549 34.8045 10.3598C34.8054 10.3608 34.8062 10.3618 34.8072 10.3627C36.4809 12.196 37.6541 14.4179 38.2228 16.8472C38.223 16.8484 38.2231 16.8495 38.2233 16.8506C38.4761 17.9315 38.6104 19.072 38.6104 20.2229C38.6104 23.0799 36.1754 27.8134 34.7813 30.0469L35.8034 30.032L35.9532 30.9375C35.9532 30.9375 38.4809 27.1607 38.8244 26.3223C39.3254 26.3878 39.876 26.3795 40.391 26.2901ZM39.3129 24.9539C39.7889 23.4004 40.0167 21.8031 40.0167 20.2229C40.0167 19.2601 39.9272 18.2658 39.7679 17.3638C41.7344 17.4991 43.3043 19.1451 43.3043 21.1566C43.3044 23.3121 41.5008 25.0609 39.3129 24.9539ZM41.7962 16.4767C41.104 16.136 40.2834 15.9387 39.45 15.9476C38.7857 13.5053 37.5486 11.2616 35.8041 9.36973C35.7015 9.25836 35.4713 9.01798 35.4324 8.97851C35.7236 8.34655 35.8337 6.92098 35.8511 6.41511C36.2181 6.7302 36.5724 7.05964 36.9115 7.40108C39.4199 9.92745 41.0895 13.0388 41.7962 16.4767ZM14.7418 2.67579C16.7348 0.769292 20.873 1.47589 22.5597 1.86823C23.502 2.08742 24.4981 2.08742 25.4405 1.86823C27.1272 1.47589 31.2653 0.769386 33.2583 2.67579C33.8696 3.26051 34.2447 4.06845 34.3863 5.08798C34.5642 6.3762 34.2928 7.98655 34.2081 8.25476C33.9695 9.00617 33.0459 9.31855 32.4038 8.85589C32.4031 8.85542 32.4025 8.85495 32.4018 8.85448C29.8764 7.03808 27.145 6.76151 24.5428 7.73005C24.2001 7.85745 23.8005 7.85764 23.4572 7.73005C20.6616 6.68942 17.9497 7.1622 15.5962 8.85589C14.8965 9.35951 13.911 8.94617 13.7551 8.10804C13.755 8.10683 13.7548 8.10561 13.7545 8.10439C13.575 7.13951 13.4803 6.07461 13.6105 5.1087C13.75 4.07932 14.1264 3.26454 14.7418 2.67579ZM8.23374 17.3637C8.06639 18.303 7.98267 19.2999 7.98267 20.2229C7.98267 21.3454 8.1067 22.4774 8.31961 23.5037C8.19117 23.6705 8.07445 23.9116 8.02599 24.146C7.97358 24.3998 7.87477 24.6623 7.73855 24.8841C5.97933 24.5312 4.69571 22.991 4.69571 21.1567C4.69571 19.1973 6.21642 17.5012 8.23374 17.3637Z" fill="black"/>
</g>
<defs>
<clipPath id="clip0_446_33">
<rect width="48" height="48" fill="white"/>
</clipPath>
</defs>
</svg>
