<svg width="1920" height="1080" viewBox="0 0 1920 1080" fill="none" xmlns="http://www.w3.org/2000/svg">
<g clip-path="url(#clip0_537_109)">
<rect width="1920" height="1080" fill="white"/>
<g clip-path="url(#clip1_537_109)">
<path fill-rule="evenodd" clip-rule="evenodd" d="M1.18036 745.048C0.398499 735.302 0 725.448 0 715.5C0 514.192 163.192 351 364.5 351C565.808 351 729 514.192 729 715.5C729 916.808 565.808 1080 364.5 1080C363.992 1080 363.485 1080 362.977 1080C318.878 1152.83 238.891 1201.5 147.536 1201.5C8.53748 1201.5 -104.143 1088.82 -104.143 949.821C-104.143 865.411 -62.588 790.706 1.18036 745.048Z" fill="url(#paint0_linear_537_109)"/>
</g>
<g clip-path="url(#clip2_537_109)">
<path fill-rule="evenodd" clip-rule="evenodd" d="M2145.31 918.269C2148.47 927.522 2151.29 936.974 2153.74 946.614C2203.39 1141.71 2085.48 1340.1 1890.38 1389.74C1695.29 1439.39 1496.9 1321.48 1447.26 1126.39C1397.61 931.294 1515.52 732.899 1710.61 683.256C1711.11 683.131 1711.6 683.007 1712.09 682.884C1736.87 601.429 1802.38 534.533 1890.92 512.005C2025.62 477.728 2162.61 559.142 2196.89 693.848C2217.7 775.651 2195.85 858.296 2145.31 918.269Z" fill="url(#paint1_linear_537_109)"/>
</g>
<g clip-path="url(#clip3_537_109)">
<path fill-rule="evenodd" clip-rule="evenodd" d="M1944.74 -21.8295C1943.68 -14.7049 1942.33 -7.56627 1940.68 -0.426995C1907.28 144.05 1763.07 234.09 1618.6 200.684C1474.12 167.277 1384.08 23.0749 1417.49 -121.402C1450.89 -265.878 1595.1 -355.919 1739.57 -322.512C1739.94 -322.428 1740.3 -322.343 1740.66 -322.257C1784.4 -367.208 1849.88 -388.867 1915.45 -373.707C2015.21 -350.641 2077.38 -251.073 2054.31 -151.315C2040.3 -90.7345 1998.08 -44.0156 1944.74 -21.8295Z" fill="url(#paint2_linear_537_109)"/>
</g>
</g>
<defs>
<linearGradient id="paint0_linear_537_109" x1="786" y1="300.5" x2="-189" y2="1239" gradientUnits="userSpaceOnUse">
<stop stop-color="#F6F5EF" stop-opacity="0.5"/>
<stop offset="1" stop-color="#F6F5EF" stop-opacity="0"/>
</linearGradient>
<linearGradient id="paint1_linear_537_109" x1="1492" y1="1703.68" x2="2027.47" y2="561.872" gradientUnits="userSpaceOnUse">
<stop stop-color="#F6F5EF"/>
<stop offset="1" stop-color="#F6F5EF" stop-opacity="0"/>
</linearGradient>
<linearGradient id="paint2_linear_537_109" x1="1298.55" y1="543.906" x2="1797.11" y2="-401.071" gradientUnits="userSpaceOnUse">
<stop stop-color="#F6F5EF"/>
<stop offset="1" stop-color="#F6F5EF" stop-opacity="0"/>
</linearGradient>
<clipPath id="clip0_537_109">
<rect width="1920" height="1080" fill="white"/>
</clipPath>
<clipPath id="clip1_537_109">
<rect width="729" height="729" fill="white" transform="matrix(-1 0 0 1 729 351)"/>
</clipPath>
<clipPath id="clip2_537_109">
<rect width="729" height="729" fill="white" transform="matrix(0.969118 -0.246599 -0.246599 -0.969118 1537.14 1479.63)"/>
</clipPath>
<clipPath id="clip3_537_109">
<rect width="537" height="537" fill="white" transform="matrix(0.974294 0.225279 0.225279 -0.974294 1357 140.196)"/>
</clipPath>
</defs>
</svg>
